Rubik-Regular.ufo
<glyph name="ampersand" format="1">
  <advance width="696"/>
  <unicode hex="0026"/>
  <outline>
    <contour>
      <point x="547" y="344" type="curve" smooth="yes"/>
      <point x="535" y="287"/>
      <point x="518" y="241"/>
      <point x="496" y="204" type="curve"/>
      <point x="344" y="355" type="line"/>
      <point x="423" y="408"/>
      <point x="476" y="466"/>
      <point x="476" y="546" type="curve" smooth="yes"/>
      <point x="476" y="648"/>
      <point x="379" y="710"/>
      <point x="293" y="710" type="curve" smooth="yes"/>
      <point x="207" y="710"/>
      <point x="104" y="653"/>
      <point x="104" y="546" type="curve" smooth="yes"/>
      <point x="104" y="489"/>
      <point x="122" y="451"/>
      <point x="195" y="372" type="curve"/>
      <point x="124" y="326"/>
      <point x="58" y="266"/>
      <point x="58" y="179" type="curve" name="hr01" smooth="yes"/>
      <point x="58" y="57"/>
      <point x="161" y="-10"/>
      <point x="290" y="-10" type="curve" smooth="yes"/>
      <point x="380" y="-10"/>
      <point x="451" y="20"/>
      <point x="504" y="65" type="curve"/>
      <point x="560" y="10" type="line" smooth="yes"/>
      <point x="565" y="6"/>
      <point x="571" y="0"/>
      <point x="585" y="0" type="curve" name="hr02" smooth="yes"/>
      <point x="659" y="0" type="line" smooth="yes"/>
      <point x="669" y="0"/>
      <point x="677" y="8"/>
      <point x="677" y="17" type="curve" smooth="yes"/>
      <point x="677" y="22"/>
      <point x="675" y="27"/>
      <point x="671" y="31" type="curve" smooth="yes"/>
      <point x="567" y="133" type="line"/>
      <point x="618" y="205"/>
      <point x="638" y="288"/>
      <point x="641" y="344" type="curve" smooth="yes"/>
      <point x="642" y="354"/>
      <point x="633" y="366"/>
      <point x="619" y="366" type="curve" smooth="yes"/>
      <point x="573" y="366" type="line" smooth="yes"/>
      <point x="562" y="366"/>
      <point x="549" y="356"/>
    </contour>
    <contour>
      <point x="290" y="80" type="curve" name="hr03" smooth="yes"/>
      <point x="228" y="80"/>
      <point x="153" y="109"/>
      <point x="153" y="179" type="curve" smooth="yes"/>
      <point x="153" y="229"/>
      <point x="207" y="270"/>
      <point x="262" y="305" type="curve"/>
      <point x="436" y="132" type="line"/>
      <point x="393" y="96"/>
      <point x="342" y="80"/>
    </contour>
    <contour>
      <point x="199" y="545" type="curve" name="hr04" smooth="yes"/>
      <point x="199" y="587"/>
      <point x="244" y="620"/>
      <point x="293" y="620" type="curve" smooth="yes"/>
      <point x="345" y="620"/>
      <point x="381" y="580"/>
      <point x="381" y="545" type="curve" smooth="yes"/>
      <point x="381" y="486"/>
      <point x="324" y="449"/>
      <point x="277" y="421" type="curve"/>
      <point x="220" y="480"/>
      <point x="199" y="505"/>
    </contour>
  </outline>
</glyph>
<glyph name="asterisk" format="1">
  <advance width="444"/>
  <unicode hex="002A"/>
  <outline>
    <contour>
      <point x="273" y="700" type="line" name="hr00" smooth="yes"/>
      <point x="274" y="705"/>
      <point x="274" y="707"/>
      <point x="274" y="708" type="curve" smooth="yes"/>
      <point x="274" y="719"/>
      <point x="264" y="730"/>
      <point x="252" y="730" type="curve" smooth="yes"/>
      <point x="192" y="730" type="line" smooth="yes"/>
      <point x="180" y="730"/>
      <point x="170" y="719"/>
      <point x="170" y="708" type="curve" smooth="yes"/>
      <point x="170" y="707"/>
      <point x="170" y="705"/>
      <point x="171" y="700" type="curve" smooth="yes"/>
      <point x="192" y="602" type="line"/>
      <point x="106" y="653" type="line" smooth="yes"/>
      <point x="102" y="656"/>
      <point x="100" y="656"/>
      <point x="99" y="657" type="curve" smooth="yes"/>
      <point x="89" y="660"/>
      <point x="75" y="654"/>
      <point x="71" y="642" type="curve" smooth="yes"/>
      <point x="53" y="585" type="line" smooth="yes"/>
      <point x="49" y="574"/>
      <point x="57" y="561"/>
      <point x="67" y="558" type="curve" smooth="yes"/>
      <point x="68" y="557"/>
      <point x="70" y="557"/>
      <point x="75" y="556" type="curve" smooth="yes"/>
      <point x="174" y="546" type="line"/>
      <point x="100" y="480" type="line" smooth="yes"/>
      <point x="96" y="477"/>
      <point x="95" y="475"/>
      <point x="94" y="474" type="curve" smooth="yes"/>
      <point x="88" y="466"/>
      <point x="89" y="450"/>
      <point x="99" y="443" type="curve" smooth="yes"/>
      <point x="148" y="408" type="line" smooth="yes"/>
      <point x="157" y="401"/>
      <point x="172" y="405"/>
      <point x="178" y="413" type="curve" smooth="yes"/>
      <point x="182" y="420" type="line"/>
      <point x="222" y="510" type="line"/>
      <point x="262" y="420" type="line"/>
      <point x="266" y="413" type="line" smooth="yes"/>
      <point x="272" y="405"/>
      <point x="287" y="401"/>
      <point x="296" y="408" type="curve" smooth="yes"/>
      <point x="345" y="443" type="line" smooth="yes"/>
      <point x="355" y="450"/>
      <point x="356" y="466"/>
      <point x="350" y="474" type="curve" smooth="yes"/>
      <point x="349" y="475"/>
      <point x="348" y="477"/>
      <point x="344" y="480" type="curve" smooth="yes"/>
      <point x="269" y="546" type="line"/>
      <point x="369" y="556" type="line" smooth="yes"/>
      <point x="374" y="557"/>
      <point x="376" y="557"/>
      <point x="377" y="558" type="curve" smooth="yes"/>
      <point x="387" y="561"/>
      <point x="395" y="574"/>
      <point x="391" y="585" type="curve" smooth="yes"/>
      <point x="373" y="642" type="line" smooth="yes"/>
      <point x="369" y="654"/>
      <point x="355" y="660"/>
      <point x="345" y="657" type="curve" smooth="yes"/>
      <point x="344" y="656"/>
      <point x="342" y="656"/>
      <point x="338" y="653" type="curve" smooth="yes"/>
      <point x="251" y="602" type="line"/>
    </contour>
  </outline>
</glyph>
<glyph name="one" format="1">
  <advance width="421"/>
  <unicode hex="0031"/>
  <outline>
    <contour>
      <point x="347" y="673" type="line" name="hr00" smooth="yes"/>
      <point x="347" y="688"/>
      <point x="335" y="700"/>
      <point x="320" y="700" type="curve" smooth="yes"/>
      <point x="279" y="700" type="line" smooth="yes"/>
      <point x="269" y="700"/>
      <point x="258" y="700"/>
      <point x="247" y="692" type="curve" smooth="yes"/>
      <point x="33" y="528" type="line" smooth="yes"/>
      <point x="21" y="519"/>
      <point x="19" y="502"/>
      <point x="28" y="490" type="curve" smooth="yes"/>
      <point x="52" y="459" type="line" smooth="yes"/>
      <point x="61" y="448"/>
      <point x="78" y="445"/>
      <point x="90" y="455" type="curve" smooth="yes"/>
      <point x="252" y="578" type="line"/>
      <point x="252" y="27" type="line" smooth="yes"/>
      <point x="252" y="12"/>
      <point x="264" y="0"/>
      <point x="279" y="0" type="curve" smooth="yes"/>
      <point x="320" y="0" type="line" smooth="yes"/>
      <point x="335" y="0"/>
      <point x="347" y="12"/>
      <point x="347" y="27" type="curve" smooth="yes"/>
    </contour>
  </outline>
</glyph>
<glyph name="four" format="1">
  <advance width="610"/>
  <unicode hex="0034"/>
  <outline>
    <contour>
      <point x="438" y="0" type="line" name="hr00" smooth="yes"/>
      <point x="453" y="0"/>
      <point x="465" y="12"/>
      <point x="465" y="27" type="curve" smooth="yes"/>
      <point x="465" y="165" type="line"/>
      <point x="551" y="165" type="line" smooth="yes"/>
      <point x="566" y="165"/>
      <point x="578" y="177"/>
      <point x="578" y="192" type="curve" smooth="yes"/>
      <point x="578" y="228" type="line" smooth="yes"/>
      <point x="578" y="243"/>
      <point x="566" y="255"/>
      <point x="551" y="255" type="curve" smooth="yes"/>
      <point x="465" y="255" type="line"/>
      <point x="465" y="673" type="line" smooth="yes"/>
      <point x="465" y="688"/>
      <point x="453" y="700"/>
      <point x="438" y="700" type="curve" smooth="yes"/>
      <point x="398" y="700" type="line" smooth="yes"/>
      <point x="382" y="700"/>
      <point x="370" y="691"/>
      <point x="359" y="676" type="curve" smooth="yes"/>
      <point x="43" y="262" type="line" smooth="yes"/>
      <point x="34" y="251"/>
      <point x="29" y="237"/>
      <point x="29" y="228" type="curve" smooth="yes"/>
      <point x="29" y="192" type="line" smooth="yes"/>
      <point x="29" y="177"/>
      <point x="41" y="165"/>
      <point x="56" y="165" type="curve" smooth="yes"/>
      <point x="370" y="165" type="line"/>
      <point x="370" y="27" type="line" smooth="yes"/>
      <point x="370" y="12"/>
      <point x="382" y="0"/>
      <point x="397" y="0" type="curve" smooth="yes"/>
    </contour>
    <contour>
      <point x="153" y="255" type="line"/>
      <point x="370" y="537" type="line"/>
      <point x="370" y="255" type="line"/>
    </contour>
  </outline>
</glyph>
<glyph name="less" format="1">
  <advance width="489"/>
  <unicode hex="003C"/>
  <outline>
    <contour>
      <point x="35" y="329" type="line" name="hr00"/>
      <point x="35" y="311"/>
      <point x="46" y="299"/>
      <point x="64" y="287" type="curve" smooth="yes"/>
      <point x="394" y="64" type="line" smooth="yes"/>
      <point x="399" y="61"/>
      <point x="403" y="61"/>
      <point x="405" y="61" type="curve" smooth="yes"/>
      <point x="417" y="61"/>
      <point x="426" y="70"/>
      <point x="426" y="82" type="curve" smooth="yes"/>
      <point x="426" y="127" type="line" smooth="yes"/>
      <point x="426" y="147"/>
      <point x="408" y="162"/>
      <point x="394" y="171" type="curve" smooth="yes"/>
      <point x="130" y="350" type="line"/>
      <point x="394" y="529" type="line" smooth="yes"/>
      <point x="408" y="538"/>
      <point x="426" y="553"/>
      <point x="426" y="573" type="curve" smooth="yes"/>
      <point x="426" y="618" type="line" smooth="yes"/>
      <point x="426" y="630"/>
      <point x="417" y="639"/>
      <point x="405" y="639" type="curve" smooth="yes"/>
      <point x="403" y="639"/>
      <point x="399" y="639"/>
      <point x="394" y="636" type="curve" smooth="yes"/>
      <point x="64" y="413" type="line" smooth="yes"/>
      <point x="46" y="401"/>
      <point x="35" y="389"/>
      <point x="35" y="371" type="curve" smooth="yes"/>
    </contour>
  </outline>
</glyph>
<glyph name="greater" format="1">
  <advance width="488"/>
  <unicode hex="003E"/>
  <outline>
    <contour>
      <point x="453" y="371" type="line" name="hr00" smooth="yes"/>
      <point x="453" y="389"/>
      <point x="442" y="401"/>
      <point x="424" y="413" type="curve" smooth="yes"/>
      <point x="94" y="636" type="line" smooth="yes"/>
      <point x="89" y="639"/>
      <point x="85" y="639"/>
      <point x="83" y="639" type="curve" smooth="yes"/>
      <point x="71" y="639"/>
      <point x="62" y="630"/>
      <point x="62" y="618" type="curve" smooth="yes"/>
      <point x="62" y="573" type="line" smooth="yes"/>
      <point x="62" y="553"/>
      <point x="80" y="538"/>
      <point x="94" y="529" type="curve" smooth="yes"/>
      <point x="358" y="350" type="line"/>
      <point x="94" y="171" type="line" smooth="yes"/>
      <point x="80" y="162"/>
      <point x="62" y="147"/>
      <point x="62" y="127" type="curve" smooth="yes"/>
      <point x="62" y="82" type="line" smooth="yes"/>
      <point x="62" y="70"/>
      <point x="71" y="61"/>
      <point x="83" y="61" type="curve" smooth="yes"/>
      <point x="85" y="61"/>
      <point x="89" y="61"/>
      <point x="94" y="64" type="curve" smooth="yes"/>
      <point x="424" y="287" type="line" smooth="yes"/>
      <point x="442" y="299"/>
      <point x="453" y="311"/>
      <point x="453" y="329" type="curve" smooth="yes"/>
    </contour>
  </outline>
</glyph>
<glyph name="question" format="1">
  <advance width="522"/>
  <unicode hex="003F"/>
  <outline>
    <contour>
      <point x="315" y="84" type="line" smooth="yes"/>
      <point x="315" y="99"/>
      <point x="303" y="111"/>
      <point x="288" y="111" type="curve" smooth="yes"/>
      <point x="231" y="111" type="line" smooth="yes"/>
      <point x="216" y="111"/>
      <point x="204" y="99"/>
      <point x="204" y="84" type="curve" smooth="yes"/>
      <point x="204" y="27" type="line" smooth="yes"/>
      <point x="204" y="12"/>
      <point x="216" y="0"/>
      <point x="231" y="0" type="curve" smooth="yes"/>
      <point x="288" y="0" type="line" smooth="yes"/>
      <point x="303" y="0"/>
      <point x="315" y="12"/>
      <point x="315" y="27" type="curve" smooth="yes"/>
    </contour>
    <contour>
      <point x="30" y="515" type="curve" smooth="yes"/>
      <point x="29" y="503"/>
      <point x="40" y="493"/>
      <point x="52" y="493" type="curve" smooth="yes"/>
      <point x="95" y="493" type="line" smooth="yes"/>
      <point x="106" y="493"/>
      <point x="118" y="501"/>
      <point x="121" y="515" type="curve" smooth="yes"/>
      <point x="140" y="592"/>
      <point x="192" y="625"/>
      <point x="261" y="625" type="curve" name="hr01" smooth="yes"/>
      <point x="331" y="625"/>
      <point x="397" y="588"/>
      <point x="397" y="521" type="curve" smooth="yes"/>
      <point x="397" y="398"/>
      <point x="214" y="379"/>
      <point x="214" y="219" type="curve" smooth="yes"/>
      <point x="214" y="198" type="line" smooth="yes"/>
      <point x="214" y="183"/>
      <point x="226" y="171"/>
      <point x="241" y="171" type="curve" smooth="yes"/>
      <point x="278" y="171" type="line" smooth="yes"/>
      <point x="293" y="171"/>
      <point x="305" y="183"/>
      <point x="305" y="198" type="curve" smooth="yes"/>
      <point x="305" y="212" type="line" smooth="yes"/>
      <point x="305" y="347"/>
      <point x="488" y="357"/>
      <point x="488" y="521" type="curve" smooth="yes"/>
      <point x="488" y="629"/>
      <point x="392" y="710"/>
      <point x="261" y="710" type="curve" smooth="yes"/>
      <point x="108" y="710"/>
      <point x="35" y="603"/>
    </contour>
  </outline>
</glyph>
<glyph name="at" format="1">
  <advance width="853"/>
  <unicode hex="0040"/>
  <outline>
    <contour>
      <point x="791" y="224" type="curve" smooth="yes"/>
      <point x="792" y="240"/>
      <point x="794" y="302"/>
      <point x="791" y="356" type="curve" smooth="yes"/>
      <point x="779" y="556"/>
      <point x="638" y="669"/>
      <point x="415" y="669" type="curve" smooth="yes"/>
      <point x="233" y="669"/>
      <point x="70" y="552"/>
      <point x="57" y="356" type="curve" smooth="yes"/>
      <point x="55" y="322"/>
      <point x="54" y="222"/>
      <point x="57" y="185" type="curve" smooth="yes"/>
      <point x="73" y="-14"/>
      <point x="234" y="-126"/>
      <point x="415" y="-126" type="curve" smooth="yes"/>
      <point x="572" y="-126"/>
      <point x="659" y="-77"/>
      <point x="715" y="-20" type="curve" smooth="yes"/>
      <point x="719" y="-16"/>
      <point x="722" y="-11"/>
      <point x="722" y="-5" type="curve" smooth="yes"/>
      <point x="723" y="12"/>
      <point x="710" y="23"/>
      <point x="695" y="23" type="curve" smooth="yes"/>
      <point x="651" y="23" type="line" smooth="yes"/>
      <point x="637" y="23"/>
      <point x="630" y="17"/>
      <point x="616" y="8" type="curve" smooth="yes"/>
      <point x="567" y="-26"/>
      <point x="524" y="-45"/>
      <point x="415" y="-45" type="curve" name="hr01" smooth="yes"/>
      <point x="281" y="-45"/>
      <point x="158" y="33"/>
      <point x="143" y="190" type="curve" smooth="yes"/>
      <point x="139" y="227"/>
      <point x="140" y="317"/>
      <point x="143" y="351" type="curve" smooth="yes"/>
      <point x="158" y="510"/>
      <point x="281" y="588"/>
      <point x="415" y="588" type="curve" smooth="yes"/>
      <point x="590" y="588"/>
      <point x="690" y="511"/>
      <point x="706" y="351" type="curve" smooth="yes"/>
      <point x="711" y="297"/>
      <point x="708" y="245"/>
      <point x="707" y="229" type="curve" smooth="yes"/>
      <point x="706" y="200"/>
      <point x="692" y="160"/>
      <point x="645" y="160" type="curve" smooth="yes"/>
      <point x="607" y="160"/>
      <point x="585" y="187"/>
      <point x="585" y="230" type="curve" smooth="yes"/>
      <point x="585" y="443" type="line" smooth="yes"/>
      <point x="585" y="458"/>
      <point x="573" y="470"/>
      <point x="558" y="470" type="curve" smooth="yes"/>
      <point x="526" y="470" type="line" smooth="yes"/>
      <point x="511" y="470"/>
      <point x="499" y="458"/>
      <point x="499" y="443" type="curve" smooth="yes"/>
      <point x="499" y="434" type="line"/>
      <point x="483" y="453"/>
      <point x="455" y="478"/>
      <point x="399" y="478" type="curve" smooth="yes"/>
      <point x="290" y="478"/>
      <point x="237" y="385"/>
      <point x="237" y="273" type="curve" smooth="yes"/>
      <point x="237" y="161"/>
      <point x="290" y="69"/>
      <point x="399" y="69" type="curve" smooth="yes"/>
      <point x="487" y="69"/>
      <point x="506" y="98"/>
      <point x="527" y="125" type="curve"/>
      <point x="546" y="103"/>
      <point x="586" y="79"/>
      <point x="645" y="79" type="curve" smooth="yes"/>
      <point x="721" y="79"/>
      <point x="785" y="123"/>
    </contour>
    <contour>
      <point x="322" y="273" type="curve" smooth="yes"/>
      <point x="322" y="328"/>
      <point x="344" y="397"/>
      <point x="410" y="397" type="curve" smooth="yes"/>
      <point x="479" y="397"/>
      <point x="499" y="347"/>
      <point x="499" y="273" type="curve" smooth="yes"/>
      <point x="499" y="198"/>
      <point x="479" y="150"/>
      <point x="410" y="150" type="curve" smooth="yes"/>
      <point x="344" y="150"/>
      <point x="322" y="218"/>
    </contour>
  </outline>
</glyph>
<glyph name="C" format="1">
  <advance width="667"/>
  <unicode hex="0043"/>
  <outline>
    <contour>
      <point x="155" y="434" type="curve" smooth="yes"/>
      <point x="159" y="545"/>
      <point x="223" y="620"/>
      <point x="342" y="620" type="curve" smooth="yes"/>
      <point x="471" y="620"/>
      <point x="512" y="551"/>
      <point x="528" y="484" type="curve" smooth="yes"/>
      <point x="531" y="470"/>
      <point x="543" y="462"/>
      <point x="554" y="462" type="curve" name="hr01" smooth="yes"/>
      <point x="600" y="462" type="line" smooth="yes"/>
      <point x="612" y="462"/>
      <point x="622" y="472"/>
      <point x="622" y="484" type="curve" smooth="yes"/>
      <point x="619" y="571"/>
      <point x="542" y="710"/>
      <point x="342" y="710" type="curve" smooth="yes"/>
      <point x="170" y="710"/>
      <point x="65" y="595"/>
      <point x="60" y="439" type="curve" smooth="yes"/>
      <point x="58" y="379"/>
      <point x="58" y="321"/>
      <point x="60" y="261" type="curve" smooth="yes"/>
      <point x="65" y="105"/>
      <point x="170" y="-10"/>
      <point x="342" y="-10" type="curve" smooth="yes"/>
      <point x="542" y="-10"/>
      <point x="619" y="129"/>
      <point x="622" y="216" type="curve" smooth="yes"/>
      <point x="622" y="228"/>
      <point x="612" y="238"/>
      <point x="600" y="238" type="curve" smooth="yes"/>
      <point x="554" y="238" type="line" smooth="yes"/>
      <point x="543" y="238"/>
      <point x="531" y="230"/>
      <point x="528" y="216" type="curve" smooth="yes"/>
      <point x="512" y="149"/>
      <point x="471" y="80"/>
      <point x="342" y="80" type="curve" name="hr02" smooth="yes"/>
      <point x="223" y="80"/>
      <point x="159" y="155"/>
      <point x="155" y="266" type="curve" smooth="yes"/>
      <point x="153" y="325"/>
      <point x="153" y="374"/>
    </contour>
  </outline>
</glyph>
<glyph name="D" format="1">
  <advance width="688"/>
  <unicode hex="0044"/>
  <outline>
    <contour>
      <point x="629" y="429" type="curve" name="hr00" smooth="yes"/>
      <point x="626" y="598"/>
      <point x="508" y="700"/>
      <point x="342" y="700" type="curve" smooth="yes"/>
      <point x="113" y="700" type="line" smooth="yes"/>
      <point x="98" y="700"/>
      <point x="86" y="688"/>
      <point x="86" y="673" type="curve" smooth="yes"/>
      <point x="86" y="27" type="line" smooth="yes"/>
      <point x="86" y="12"/>
      <point x="98" y="0"/>
      <point x="113" y="0" type="curve" smooth="yes"/>
      <point x="348" y="0" type="line" smooth="yes"/>
      <point x="513" y="0"/>
      <point x="626" y="102"/>
      <point x="629" y="271" type="curve" smooth="yes"/>
      <point x="630" y="331"/>
      <point x="630" y="369"/>
    </contour>
    <contour>
      <point x="534" y="424" type="curve" smooth="yes"/>
      <point x="535" y="364"/>
      <point x="535" y="336"/>
      <point x="534" y="276" type="curve" smooth="yes"/>
      <point x="532" y="180"/>
      <point x="487" y="90"/>
      <point x="343" y="90" type="curve" smooth="yes"/>
      <point x="181" y="90" type="line"/>
      <point x="181" y="610" type="line"/>
      <point x="338" y="610" type="line" smooth="yes"/>
      <point x="482" y="610"/>
      <point x="532" y="520"/>
    </contour>
  </outline>
</glyph>
<glyph name="E" format="1">
  <advance width="592"/>
  <unicode hex="0045"/>
  <outline>
    <contour>
      <point x="517" y="90" type="line" name="hr00" smooth="yes"/>
      <point x="532" y="90"/>
      <point x="544" y="78"/>
      <point x="544" y="63" type="curve" smooth="yes"/>
      <point x="544" y="27" type="line" smooth="yes"/>
      <point x="544" y="12"/>
      <point x="532" y="0"/>
      <point x="517" y="0" type="curve" smooth="yes"/>
      <point x="113" y="0" type="line" smooth="yes"/>
      <point x="98" y="0"/>
      <point x="86" y="12"/>
      <point x="86" y="27" type="curve" smooth="yes"/>
      <point x="86" y="673" type="line" smooth="yes"/>
      <point x="86" y="688"/>
      <point x="98" y="700"/>
      <point x="113" y="700" type="curve" smooth="yes"/>
      <point x="509" y="700" type="line" smooth="yes"/>
      <point x="524" y="700"/>
      <point x="536" y="688"/>
      <point x="536" y="673" type="curve" smooth="yes"/>
      <point x="536" y="637" type="line" smooth="yes"/>
      <point x="536" y="622"/>
      <point x="524" y="610"/>
      <point x="509" y="610" type="curve" smooth="yes"/>
      <point x="181" y="610" type="line"/>
      <point x="181" y="399" type="line"/>
      <point x="487" y="399" type="line" smooth="yes"/>
      <point x="502" y="399"/>
      <point x="514" y="387"/>
      <point x="514" y="372" type="curve" smooth="yes"/>
      <point x="514" y="336" type="line" smooth="yes"/>
      <point x="514" y="321"/>
      <point x="502" y="309"/>
      <point x="487" y="309" type="curve" smooth="yes"/>
      <point x="181" y="309" type="line"/>
      <point x="181" y="90" type="line"/>
    </contour>
  </outline>
</glyph>
<glyph name="F" format="1">
  <advance width="577"/>
  <unicode hex="0046"/>
  <outline>
    <contour>
      <point x="113" y="700" type="line" name="hr00" smooth="yes"/>
      <point x="98" y="700"/>
      <point x="86" y="688"/>
      <point x="86" y="673" type="curve" smooth="yes"/>
      <point x="86" y="27" type="line" smooth="yes"/>
      <point x="86" y="12"/>
      <point x="98" y="0"/>
      <point x="113" y="0" type="curve" smooth="yes"/>
      <point x="154" y="0" type="line" smooth="yes"/>
      <point x="169" y="0"/>
      <point x="181" y="12"/>
      <point x="181" y="27" type="curve" smooth="yes"/>
      <point x="181" y="289" type="line"/>
      <point x="490" y="289" type="line" smooth="yes"/>
      <point x="505" y="289"/>
      <point x="517" y="301"/>
      <point x="517" y="316" type="curve" smooth="yes"/>
      <point x="517" y="352" type="line" smooth="yes"/>
      <point x="517" y="367"/>
      <point x="505" y="379"/>
      <point x="490" y="379" type="curve" smooth="yes"/>
      <point x="181" y="379" type="line"/>
      <point x="181" y="610" type="line"/>
      <point x="510" y="610" type="line" smooth="yes"/>
      <point x="525" y="610"/>
      <point x="537" y="622"/>
      <point x="537" y="637" type="curve" smooth="yes"/>
      <point x="537" y="673" type="line" smooth="yes"/>
      <point x="537" y="688"/>
      <point x="525" y="700"/>
      <point x="510" y="700" type="curve" smooth="yes"/>
    </contour>
  </outline>
</glyph>
<glyph name="J" format="1">
  <advance width="629"/>
  <unicode hex="004A"/>
  <outline>
    <contour>
      <point x="549" y="673" type="line" smooth="yes"/>
      <point x="549" y="688"/>
      <point x="537" y="700"/>
      <point x="522" y="700" type="curve" smooth="yes"/>
      <point x="109" y="700" type="line" smooth="yes"/>
      <point x="94" y="700"/>
      <point x="82" y="688"/>
      <point x="82" y="673" type="curve" smooth="yes"/>
      <point x="82" y="637" type="line" smooth="yes"/>
      <point x="82" y="622"/>
      <point x="94" y="610"/>
      <point x="109" y="610" type="curve" smooth="yes"/>
      <point x="454" y="610" type="line"/>
      <point x="454" y="256" type="line" smooth="yes"/>
      <point x="454" y="145"/>
      <point x="409" y="80"/>
      <point x="292" y="80" type="curve" smooth="yes"/>
      <point x="188" y="80"/>
      <point x="142" y="139"/>
      <point x="129" y="206" type="curve" smooth="yes"/>
      <point x="126" y="220"/>
      <point x="118" y="228"/>
      <point x="107" y="228" type="curve" name="hr01" smooth="yes"/>
      <point x="56" y="228" type="line" smooth="yes"/>
      <point x="44" y="228"/>
      <point x="34" y="218"/>
      <point x="34" y="206" type="curve" smooth="yes"/>
      <point x="37" y="94"/>
      <point x="129" y="-10"/>
      <point x="292" y="-10" type="curve" smooth="yes"/>
      <point x="459" y="-10"/>
      <point x="549" y="94"/>
      <point x="549" y="245" type="curve" smooth="yes"/>
    </contour>
  </outline>
</glyph>
<glyph name="L" format="1">
  <advance width="566"/>
  <unicode hex="004C"/>
  <outline>
    <contour>
      <point x="181" y="90" type="line" name="hr00"/>
      <point x="181" y="673" type="line" smooth="yes"/>
      <point x="181" y="688"/>
      <point x="169" y="700"/>
      <point x="154" y="700" type="curve" smooth="yes"/>
      <point x="113" y="700" type="line" smooth="yes"/>
      <point x="98" y="700"/>
      <point x="86" y="688"/>
      <point x="86" y="673" type="curve" smooth="yes"/>
      <point x="86" y="27" type="line" smooth="yes"/>
      <point x="86" y="12"/>
      <point x="98" y="0"/>
      <point x="113" y="0" type="curve" smooth="yes"/>
      <point x="520" y="0" type="line" smooth="yes"/>
      <point x="535" y="0"/>
      <point x="547" y="12"/>
      <point x="547" y="27" type="curve" smooth="yes"/>
      <point x="547" y="63" type="line" smooth="yes"/>
      <point x="547" y="78"/>
      <point x="535" y="90"/>
      <point x="520" y="90" type="curve" smooth="yes"/>
    </contour>
  </outline>
</glyph>
<glyph name="S" format="1">
  <advance width="618"/>
  <unicode hex="0053"/>
  <outline>
    <contour>
      <point x="301" y="710" type="curve" smooth="yes"/>
      <point x="142" y="710"/>
      <point x="63" y="616"/>
      <point x="63" y="516" type="curve" smooth="yes"/>
      <point x="63" y="426"/>
      <point x="112" y="361"/>
      <point x="246" y="326" type="curve" smooth="yes"/>
      <point x="392" y="288"/>
      <point x="480" y="264"/>
      <point x="480" y="194" type="curve" smooth="yes"/>
      <point x="480" y="124"/>
      <point x="400" y="80"/>
      <point x="306" y="80" type="curve" smooth="yes"/>
      <point x="197" y="80"/>
      <point x="148" y="140"/>
      <point x="132" y="176" type="curve" smooth="yes"/>
      <point x="124" y="194"/>
      <point x="114" y="198"/>
      <point x="101" y="198" type="curve" name="hr01" smooth="yes"/>
      <point x="60" y="198" type="line" smooth="yes"/>
      <point x="48" y="198"/>
      <point x="38" y="188"/>
      <point x="38" y="176" type="curve" smooth="yes"/>
      <point x="41" y="92"/>
      <point x="151" y="-10"/>
      <point x="306" y="-10" type="curve" smooth="yes"/>
      <point x="468" y="-10"/>
      <point x="575" y="74"/>
      <point x="575" y="194" type="curve" smooth="yes"/>
      <point x="575" y="294"/>
      <point x="517" y="346"/>
      <point x="366" y="386" type="curve" smooth="yes"/>
      <point x="218" y="425"/>
      <point x="158" y="446"/>
      <point x="158" y="516" type="curve" smooth="yes"/>
      <point x="158" y="586"/>
      <point x="227" y="620"/>
      <point x="301" y="620" type="curve" smooth="yes"/>
      <point x="400" y="620"/>
      <point x="448" y="555"/>
      <point x="461" y="529" type="curve" smooth="yes"/>
      <point x="470" y="511"/>
      <point x="477" y="507"/>
      <point x="492" y="507" type="curve" name="hr02" smooth="yes"/>
      <point x="533" y="507" type="line" smooth="yes"/>
      <point x="545" y="507"/>
      <point x="556" y="517"/>
      <point x="555" y="529" type="curve" smooth="yes"/>
      <point x="552" y="596"/>
      <point x="463" y="710"/>
    </contour>
  </outline>
</glyph>
<glyph name="V" format="1">
  <advance width="647"/>
  <unicode hex="0056"/>
  <outline>
    <contour>
      <point x="323" y="100" type="line" name="hr00"/>
      <point x="130" y="675" type="line" smooth="yes"/>
      <point x="126" y="686"/>
      <point x="117" y="700"/>
      <point x="91" y="700" type="curve" smooth="yes"/>
      <point x="54" y="700" type="line" smooth="yes"/>
      <point x="42" y="700"/>
      <point x="32" y="690"/>
      <point x="32" y="678" type="curve" smooth="yes"/>
      <point x="32" y="676"/>
      <point x="32" y="673"/>
      <point x="34" y="668" type="curve" smooth="yes"/>
      <point x="251" y="40" type="line"/>
      <point x="259" y="16"/>
      <point x="276" y="0"/>
      <point x="303" y="0" type="curve" smooth="yes"/>
      <point x="343" y="0" type="line" smooth="yes"/>
      <point x="370" y="0"/>
      <point x="388" y="16"/>
      <point x="396" y="40" type="curve"/>
      <point x="612" y="668" type="line" smooth="yes"/>
      <point x="614" y="673"/>
      <point x="614" y="676"/>
      <point x="614" y="678" type="curve" smooth="yes"/>
      <point x="614" y="690"/>
      <point x="604" y="700"/>
      <point x="592" y="700" type="curve" smooth="yes"/>
      <point x="555" y="700" type="line" smooth="yes"/>
      <point x="529" y="700"/>
      <point x="520" y="686"/>
      <point x="516" y="675" type="curve" smooth="yes"/>
    </contour>
  </outline>
</glyph>
<glyph name="Y" format="1">
  <advance width="643"/>
  <unicode hex="0059"/>
  <outline>
    <contour>
      <point x="369" y="261" type="line" name="hr00"/>
      <point x="608" y="664" type="line" smooth="yes"/>
      <point x="612" y="671"/>
      <point x="613" y="674"/>
      <point x="613" y="678" type="curve" smooth="yes"/>
      <point x="613" y="690"/>
      <point x="603" y="700"/>
      <point x="591" y="700" type="curve" smooth="yes"/>
      <point x="548" y="700" type="line" smooth="yes"/>
      <point x="521" y="700"/>
      <point x="513" y="687"/>
      <point x="506" y="675" type="curve" smooth="yes"/>
      <point x="321" y="357" type="line"/>
      <point x="137" y="675" type="line" smooth="yes"/>
      <point x="130" y="687"/>
      <point x="122" y="700"/>
      <point x="95" y="700" type="curve" smooth="yes"/>
      <point x="52" y="700" type="line" smooth="yes"/>
      <point x="40" y="700"/>
      <point x="30" y="690"/>
      <point x="30" y="678" type="curve" smooth="yes"/>
      <point x="30" y="674"/>
      <point x="31" y="671"/>
      <point x="35" y="664" type="curve" smooth="yes"/>
      <point x="274" y="261" type="line"/>
      <point x="274" y="27" type="line" smooth="yes"/>
      <point x="274" y="12"/>
      <point x="286" y="0"/>
      <point x="301" y="0" type="curve" smooth="yes"/>
      <point x="342" y="0" type="line" smooth="yes"/>
      <point x="357" y="0"/>
      <point x="369" y="12"/>
      <point x="369" y="27" type="curve" smooth="yes"/>
    </contour>
  </outline>
</glyph>
<glyph name="asciicircum" format="1">
  <advance width="410"/>
  <unicode hex="005E"/>
  <outline>
    <contour>
      <point x="195" y="735" type="line" name="hr00" smooth="yes"/>
      <point x="180" y="735"/>
      <point x="171" y="730"/>
      <point x="158" y="716" type="curve" smooth="yes"/>
      <point x="66" y="624" type="line" smooth="yes"/>
      <point x="63" y="621"/>
      <point x="61" y="616"/>
      <point x="61" y="611" type="curve" smooth="yes"/>
      <point x="61" y="601"/>
      <point x="67" y="595"/>
      <point x="77" y="595" type="curve" smooth="yes"/>
      <point x="98" y="595" type="line" smooth="yes"/>
      <point x="111" y="595"/>
      <point x="117" y="598"/>
      <point x="129" y="606" type="curve" smooth="yes"/>
      <point x="205" y="657" type="line"/>
      <point x="281" y="606" type="line" smooth="yes"/>
      <point x="293" y="598"/>
      <point x="299" y="595"/>
      <point x="312" y="595" type="curve" smooth="yes"/>
      <point x="333" y="595" type="line" smooth="yes"/>
      <point x="343" y="595"/>
      <point x="349" y="601"/>
      <point x="349" y="611" type="curve" smooth="yes"/>
      <point x="349" y="616"/>
      <point x="347" y="621"/>
      <point x="344" y="624" type="curve" smooth="yes"/>
      <point x="252" y="716" type="line" smooth="yes"/>
      <point x="239" y="730"/>
      <point x="230" y="735"/>
      <point x="215" y="735" type="curve" smooth="yes"/>
    </contour>
  </outline>
</glyph>
<glyph name="b" format="1">
  <advance width="598"/>
  <unicode hex="0062"/>
  <outline>
    <contour>
      <point x="321" y="530" type="curve" smooth="yes"/>
      <point x="239" y="530"/>
      <point x="191" y="495"/>
      <point x="166" y="462" type="curve"/>
      <point x="166" y="683" type="line" smooth="yes"/>
      <point x="166" y="698"/>
      <point x="154" y="710"/>
      <point x="139" y="710" type="curve" smooth="yes"/>
      <point x="102" y="710" type="line" smooth="yes"/>
      <point x="87" y="710"/>
      <point x="75" y="698"/>
      <point x="75" y="683" type="curve" smooth="yes"/>
      <point x="75" y="27" type="line" smooth="yes"/>
      <point x="75" y="12"/>
      <point x="87" y="0"/>
      <point x="102" y="0" type="curve" smooth="yes"/>
      <point x="139" y="0" type="line" smooth="yes"/>
      <point x="154" y="0"/>
      <point x="166" y="12"/>
      <point x="166" y="27" type="curve" smooth="yes"/>
      <point x="166" y="58" type="line"/>
      <point x="193" y="22"/>
      <point x="240" y="-10"/>
      <point x="321" y="-10" type="curve" name="hr01" smooth="yes"/>
      <point x="446" y="-10"/>
      <point x="541" y="81"/>
      <point x="548" y="228" type="curve" smooth="yes"/>
      <point x="549" y="248"/>
      <point x="549" y="273"/>
      <point x="548" y="293" type="curve" smooth="yes"/>
      <point x="541" y="440"/>
      <point x="446" y="530"/>
    </contour>
    <contour>
      <point x="166" y="217" type="curve" smooth="yes"/>
      <point x="164" y="237"/>
      <point x="164" y="276"/>
      <point x="166" y="296" type="curve" smooth="yes"/>
      <point x="174" y="390"/>
      <point x="227" y="444"/>
      <point x="311" y="444" type="curve" smooth="yes"/>
      <point x="398" y="444"/>
      <point x="450" y="384"/>
      <point x="457" y="288" type="curve" smooth="yes"/>
      <point x="458" y="268"/>
      <point x="458" y="252"/>
      <point x="457" y="232" type="curve" smooth="yes"/>
      <point x="450" y="136"/>
      <point x="398" y="76"/>
      <point x="311" y="76" type="curve" smooth="yes"/>
      <point x="229" y="76"/>
      <point x="173" y="131"/>
    </contour>
  </outline>
</glyph>
<glyph name="c" format="1">
  <advance width="555"/>
  <unicode hex="0063"/>
  <outline>
    <contour>
      <point x="142" y="225" type="curve" smooth="yes"/>
      <point x="140" y="246"/>
      <point x="140" y="272"/>
      <point x="142" y="295" type="curve" smooth="yes"/>
      <point x="151" y="401"/>
      <point x="218" y="444"/>
      <point x="285" y="444" type="curve" smooth="yes"/>
      <point x="348" y="444"/>
      <point x="395" y="421"/>
      <point x="420" y="366" type="curve" smooth="yes"/>
      <point x="429" y="345"/>
      <point x="438" y="339"/>
      <point x="453" y="339" type="curve" name="hr01" smooth="yes"/>
      <point x="483" y="339" type="line" smooth="yes"/>
      <point x="498" y="339"/>
      <point x="511" y="351"/>
      <point x="510" y="366" type="curve" smooth="yes"/>
      <point x="507" y="429"/>
      <point x="432" y="530"/>
      <point x="285" y="530" type="curve" smooth="yes"/>
      <point x="138" y="530"/>
      <point x="62" y="428"/>
      <point x="51" y="300" type="curve" smooth="yes"/>
      <point x="49" y="277"/>
      <point x="50" y="241"/>
      <point x="51" y="220" type="curve" smooth="yes"/>
      <point x="57" y="92"/>
      <point x="138" y="-10"/>
      <point x="285" y="-10" type="curve" smooth="yes"/>
      <point x="432" y="-10"/>
      <point x="507" y="91"/>
      <point x="510" y="154" type="curve" smooth="yes"/>
      <point x="511" y="169"/>
      <point x="498" y="181"/>
      <point x="483" y="181" type="curve" smooth="yes"/>
      <point x="453" y="181" type="line" smooth="yes"/>
      <point x="438" y="181"/>
      <point x="429" y="175"/>
      <point x="420" y="154" type="curve" smooth="yes"/>
      <point x="395" y="99"/>
      <point x="348" y="76"/>
      <point x="285" y="76" type="curve" name="hr02" smooth="yes"/>
      <point x="218" y="76"/>
      <point x="152" y="119"/>
    </contour>
  </outline>
</glyph>
<glyph name="f" format="1">
  <advance width="390"/>
  <unicode hex="0066"/>
  <outline>
    <contour>
      <point x="221" y="565" type="line" name="hr00" smooth="yes"/>
      <point x="221" y="616"/>
      <point x="235" y="654"/>
      <point x="305" y="654" type="curve" smooth="yes"/>
      <point x="358" y="654" type="line" smooth="yes"/>
      <point x="373" y="654"/>
      <point x="385" y="666"/>
      <point x="385" y="681" type="curve" smooth="yes"/>
      <point x="385" y="713" type="line" smooth="yes"/>
      <point x="385" y="728"/>
      <point x="373" y="740"/>
      <point x="358" y="740" type="curve" smooth="yes"/>
      <point x="295" y="740" type="line" smooth="yes"/>
      <point x="180" y="740"/>
      <point x="130" y="683"/>
      <point x="130" y="570" type="curve" smooth="yes"/>
      <point x="130" y="520" type="line"/>
      <point x="46" y="520" type="line" smooth="yes"/>
      <point x="31" y="520"/>
      <point x="19" y="508"/>
      <point x="19" y="493" type="curve" smooth="yes"/>
      <point x="19" y="461" type="line" smooth="yes"/>
      <point x="19" y="446"/>
      <point x="31" y="434"/>
      <point x="46" y="434" type="curve" smooth="yes"/>
      <point x="130" y="434" type="line"/>
      <point x="130" y="27" type="line" smooth="yes"/>
      <point x="130" y="12"/>
      <point x="142" y="0"/>
      <point x="157" y="0" type="curve" smooth="yes"/>
      <point x="194" y="0" type="line" smooth="yes"/>
      <point x="209" y="0"/>
      <point x="221" y="12"/>
      <point x="221" y="27" type="curve" smooth="yes"/>
      <point x="221" y="434" type="line"/>
      <point x="348" y="434" type="line" smooth="yes"/>
      <point x="363" y="434"/>
      <point x="375" y="446"/>
      <point x="375" y="461" type="curve" smooth="yes"/>
      <point x="375" y="493" type="line" smooth="yes"/>
      <point x="375" y="508"/>
      <point x="363" y="520"/>
      <point x="348" y="520" type="curve" smooth="yes"/>
      <point x="221" y="520" type="line"/>
    </contour>
  </outline>
</glyph>
<glyph name="u" format="1">
  <advance width="597"/>
  <unicode hex="0075"/>
  <outline>
    <contour>
      <point x="70" y="214" type="line" smooth="yes"/>
      <point x="70" y="74"/>
      <point x="155" y="-10"/>
      <point x="281" y="-10" type="curve" smooth="yes"/>
      <point x="362" y="-10"/>
      <point x="406" y="25"/>
      <point x="431" y="58" type="curve"/>
      <point x="431" y="27" type="line" smooth="yes"/>
      <point x="431" y="12"/>
      <point x="443" y="0"/>
      <point x="458" y="0" type="curve" name="hr01" smooth="yes"/>
      <point x="495" y="0" type="line" smooth="yes"/>
      <point x="510" y="0"/>
      <point x="522" y="12"/>
      <point x="522" y="27" type="curve" smooth="yes"/>
      <point x="522" y="493" type="line" smooth="yes"/>
      <point x="522" y="508"/>
      <point x="510" y="520"/>
      <point x="495" y="520" type="curve" smooth="yes"/>
      <point x="458" y="520" type="line" smooth="yes"/>
      <point x="443" y="520"/>
      <point x="431" y="508"/>
      <point x="431" y="493" type="curve" smooth="yes"/>
      <point x="431" y="229" type="line" smooth="yes"/>
      <point x="431" y="127"/>
      <point x="380" y="76"/>
      <point x="296" y="76" type="curve" name="hr02" smooth="yes"/>
      <point x="209" y="76"/>
      <point x="161" y="127"/>
      <point x="161" y="229" type="curve" smooth="yes"/>
      <point x="161" y="493" type="line" smooth="yes"/>
      <point x="161" y="508"/>
      <point x="149" y="520"/>
      <point x="134" y="520" type="curve" smooth="yes"/>
      <point x="97" y="520" type="line" smooth="yes"/>
      <point x="82" y="520"/>
      <point x="70" y="508"/>
      <point x="70" y="493" type="curve" smooth="yes"/>
    </contour>
  </outline>
</glyph>
<glyph name="y" format="1">
  <advance width="557"/>
  <unicode hex="0079"/>
  <outline>
    <contour>
      <point x="529" y="489" type="line" name="hr00" smooth="yes"/>
      <point x="530" y="492"/>
      <point x="530" y="494"/>
      <point x="530" y="496" type="curve" smooth="yes"/>
      <point x="530" y="509"/>
      <point x="519" y="520"/>
      <point x="506" y="520" type="curve" smooth="yes"/>
      <point x="465" y="520" type="line" smooth="yes"/>
      <point x="449" y="520"/>
      <point x="440" y="507"/>
      <point x="436" y="496" type="curve"/>
      <point x="280" y="156" type="line"/>
      <point x="126" y="496" type="line"/>
      <point x="122" y="507"/>
      <point x="113" y="520"/>
      <point x="97" y="520" type="curve" smooth="yes"/>
      <point x="56" y="520" type="line" smooth="yes"/>
      <point x="43" y="520"/>
      <point x="32" y="509"/>
      <point x="32" y="496" type="curve" smooth="yes"/>
      <point x="32" y="494"/>
      <point x="32" y="492"/>
      <point x="33" y="489" type="curve" smooth="yes"/>
      <point x="231" y="50" type="line"/>
      <point x="135" y="-159" type="line" smooth="yes"/>
      <point x="134" y="-162"/>
      <point x="134" y="-164"/>
      <point x="134" y="-166" type="curve" smooth="yes"/>
      <point x="134" y="-179"/>
      <point x="145" y="-190"/>
      <point x="158" y="-190" type="curve" smooth="yes"/>
      <point x="199" y="-190" type="line" smooth="yes"/>
      <point x="215" y="-190"/>
      <point x="224" y="-177"/>
      <point x="228" y="-166" type="curve"/>
    </contour>
  </outline>
</glyph>
<glyph name="braceleft" format="1">
  <advance width="380"/>
  <unicode hex="007B"/>
  <outline>
    <contour>
      <point x="199" y="151" type="curve" smooth="yes"/>
      <point x="199" y="224"/>
      <point x="176" y="285"/>
      <point x="128" y="309" type="curve"/>
      <point x="176" y="333"/>
      <point x="199" y="392"/>
      <point x="199" y="465" type="curve" smooth="yes"/>
      <point x="199" y="631"/>
      <point x="244" y="690"/>
      <point x="328" y="690" type="curve" smooth="yes"/>
      <point x="343" y="690"/>
      <point x="355" y="702"/>
      <point x="355" y="717" type="curve" name="hr01" smooth="yes"/>
      <point x="355" y="749" type="line" smooth="yes"/>
      <point x="355" y="764"/>
      <point x="343" y="776"/>
      <point x="328" y="776" type="curve" smooth="yes"/>
      <point x="189" y="776"/>
      <point x="108" y="665"/>
      <point x="108" y="491" type="curve" smooth="yes"/>
      <point x="108" y="423"/>
      <point x="100" y="381"/>
      <point x="55" y="360" type="curve" smooth="yes"/>
      <point x="35" y="351"/>
      <point x="23" y="336"/>
      <point x="23" y="320" type="curve" smooth="yes"/>
      <point x="23" y="297" type="line" smooth="yes"/>
      <point x="23" y="281"/>
      <point x="35" y="266"/>
      <point x="55" y="257" type="curve" smooth="yes"/>
      <point x="100" y="236"/>
      <point x="108" y="193"/>
      <point x="108" y="125" type="curve" smooth="yes"/>
      <point x="108" y="-49"/>
      <point x="189" y="-160"/>
      <point x="328" y="-160" type="curve" smooth="yes"/>
      <point x="343" y="-160"/>
      <point x="355" y="-148"/>
      <point x="355" y="-133" type="curve" smooth="yes"/>
      <point x="355" y="-101" type="line" smooth="yes"/>
      <point x="355" y="-86"/>
      <point x="343" y="-74"/>
      <point x="328" y="-74" type="curve" smooth="yes"/>
      <point x="244" y="-74"/>
      <point x="199" y="-15"/>
    </contour>
  </outline>
</glyph>
<glyph name="braceright" format="1">
  <advance width="380"/>
  <unicode hex="007D"/>
  <outline>
    <contour>
      <point x="181" y="151" type="curve" smooth="yes"/>
      <point x="181" y="-15"/>
      <point x="136" y="-74"/>
      <point x="52" y="-74" type="curve" smooth="yes"/>
      <point x="37" y="-74"/>
      <point x="25" y="-86"/>
      <point x="25" y="-101" type="curve" name="hr01" smooth="yes"/>
      <point x="25" y="-133" type="line" smooth="yes"/>
      <point x="25" y="-148"/>
      <point x="37" y="-160"/>
      <point x="52" y="-160" type="curve" smooth="yes"/>
      <point x="191" y="-160"/>
      <point x="272" y="-49"/>
      <point x="272" y="125" type="curve" smooth="yes"/>
      <point x="272" y="193"/>
      <point x="280" y="236"/>
      <point x="325" y="257" type="curve" smooth="yes"/>
      <point x="345" y="266"/>
      <point x="357" y="281"/>
      <point x="357" y="297" type="curve" smooth="yes"/>
      <point x="357" y="320" type="line" smooth="yes"/>
      <point x="357" y="336"/>
      <point x="345" y="351"/>
      <point x="325" y="360" type="curve" smooth="yes"/>
      <point x="280" y="381"/>
      <point x="272" y="423"/>
      <point x="272" y="491" type="curve" smooth="yes"/>
      <point x="272" y="665"/>
      <point x="191" y="776"/>
      <point x="52" y="776" type="curve" smooth="yes"/>
      <point x="37" y="776"/>
      <point x="25" y="764"/>
      <point x="25" y="749" type="curve" smooth="yes"/>
      <point x="25" y="717" type="line" smooth="yes"/>
      <point x="25" y="702"/>
      <point x="37" y="690"/>
      <point x="52" y="690" type="curve" smooth="yes"/>
      <point x="136" y="690"/>
      <point x="181" y="631"/>
      <point x="181" y="465" type="curve" name="hr02" smooth="yes"/>
      <point x="181" y="392"/>
      <point x="204" y="333"/>
      <point x="252" y="309" type="curve"/>
      <point x="204" y="285"/>
      <point x="181" y="224"/>
    </contour>
  </outline>
</glyph>
<glyph name="currency" format="1">
  <advance width="590"/>
  <unicode hex="00A4"/>
  <outline>
    <contour>
      <point x="75" y="300" type="curve" name="hr00" smooth="yes"/>
      <point x="75" y="256"/>
      <point x="88" y="215"/>
      <point x="110" y="180" type="curve"/>
      <point x="69" y="139" type="line"/>
      <point x="59" y="129"/>
      <point x="59" y="112"/>
      <point x="69" y="101" type="curve"/>
      <point x="96" y="75" type="line"/>
      <point x="106" y="65"/>
      <point x="123" y="65"/>
      <point x="134" y="75" type="curve"/>
      <point x="174" y="116" type="line"/>
      <point x="208" y="93"/>
      <point x="250" y="80"/>
      <point x="295" y="80" type="curve" smooth="yes"/>
      <point x="339" y="80"/>
      <point x="381" y="93"/>
      <point x="416" y="116" type="curve"/>
      <point x="456" y="75" type="line"/>
      <point x="467" y="65"/>
      <point x="484" y="65"/>
      <point x="494" y="75" type="curve"/>
      <point x="521" y="101" type="line"/>
      <point x="531" y="112"/>
      <point x="531" y="129"/>
      <point x="521" y="139" type="curve"/>
      <point x="479" y="180" type="line"/>
      <point x="502" y="215"/>
      <point x="515" y="256"/>
      <point x="515" y="300" type="curve" smooth="yes"/>
      <point x="515" y="344"/>
      <point x="502" y="386"/>
      <point x="479" y="421" type="curve"/>
      <point x="520" y="461" type="line"/>
      <point x="530" y="472"/>
      <point x="530" y="489"/>
      <point x="520" y="499" type="curve"/>
      <point x="494" y="526" type="line"/>
      <point x="483" y="536"/>
      <point x="466" y="536"/>
      <point x="456" y="526" type="curve"/>
      <point x="414" y="484" type="line"/>
      <point x="380" y="507"/>
      <point x="339" y="520"/>
      <point x="295" y="520" type="curve" smooth="yes"/>
      <point x="251" y="520"/>
      <point x="210" y="507"/>
      <point x="175" y="484" type="curve"/>
      <point x="134" y="526" type="line"/>
      <point x="124" y="536"/>
      <point x="107" y="536"/>
      <point x="96" y="526" type="curve"/>
      <point x="70" y="499" type="line"/>
      <point x="60" y="489"/>
      <point x="60" y="472"/>
      <point x="70" y="461" type="curve"/>
      <point x="111" y="421" type="line"/>
      <point x="88" y="386"/>
      <point x="75" y="344"/>
    </contour>
    <contour>
      <point x="166" y="300" type="curve" smooth="yes"/>
      <point x="166" y="371"/>
      <point x="224" y="429"/>
      <point x="295" y="429" type="curve" smooth="yes"/>
      <point x="366" y="429"/>
      <point x="424" y="371"/>
      <point x="424" y="300" type="curve" smooth="yes"/>
      <point x="424" y="229"/>
      <point x="366" y="171"/>
      <point x="295" y="171" type="curve" smooth="yes"/>
      <point x="224" y="171"/>
      <point x="166" y="229"/>
    </contour>
  </outline>
</glyph>
<glyph name="yen" format="1">
  <advance width="618"/>
  <unicode hex="00A5"/>
  <outline>
    <contour>
      <point x="114" y="308" type="line" name="hr00" smooth="yes"/>
      <point x="101" y="308"/>
      <point x="92" y="299"/>
      <point x="92" y="286" type="curve" smooth="yes"/>
      <point x="92" y="260" type="line" smooth="yes"/>
      <point x="92" y="247"/>
      <point x="101" y="238"/>
      <point x="114" y="238" type="curve" smooth="yes"/>
      <point x="262" y="238" type="line"/>
      <point x="262" y="188" type="line"/>
      <point x="114" y="188" type="line" smooth="yes"/>
      <point x="101" y="188"/>
      <point x="92" y="179"/>
      <point x="92" y="166" type="curve" smooth="yes"/>
      <point x="92" y="140" type="line" smooth="yes"/>
      <point x="92" y="127"/>
      <point x="101" y="118"/>
      <point x="114" y="118" type="curve" smooth="yes"/>
      <point x="262" y="118" type="line"/>
      <point x="262" y="27" type="line" smooth="yes"/>
      <point x="262" y="12"/>
      <point x="274" y="0"/>
      <point x="289" y="0" type="curve" smooth="yes"/>
      <point x="329" y="0" type="line" smooth="yes"/>
      <point x="344" y="0"/>
      <point x="356" y="12"/>
      <point x="356" y="27" type="curve" smooth="yes"/>
      <point x="356" y="118" type="line"/>
      <point x="504" y="118" type="line" smooth="yes"/>
      <point x="517" y="118"/>
      <point x="526" y="127"/>
      <point x="526" y="140" type="curve" smooth="yes"/>
      <point x="526" y="166" type="line" smooth="yes"/>
      <point x="526" y="179"/>
      <point x="517" y="188"/>
      <point x="504" y="188" type="curve" smooth="yes"/>
      <point x="356" y="188" type="line"/>
      <point x="356" y="238" type="line"/>
      <point x="504" y="238" type="line" smooth="yes"/>
      <point x="517" y="238"/>
      <point x="526" y="247"/>
      <point x="526" y="260" type="curve" smooth="yes"/>
      <point x="526" y="286" type="line" smooth="yes"/>
      <point x="526" y="299"/>
      <point x="517" y="308"/>
      <point x="504" y="308" type="curve" smooth="yes"/>
      <point x="372" y="308" type="line"/>
      <point x="583" y="664" type="line" smooth="yes"/>
      <point x="587" y="671"/>
      <point x="588" y="674"/>
      <point x="588" y="678" type="curve" smooth="yes"/>
      <point x="588" y="690"/>
      <point x="578" y="700"/>
      <point x="566" y="700" type="curve" smooth="yes"/>
      <point x="523" y="700" type="line" smooth="yes"/>
      <point x="496" y="700"/>
      <point x="489" y="686"/>
      <point x="481" y="675" type="curve"/>
      <point x="309" y="383" type="line"/>
      <point x="137" y="675" type="line"/>
      <point x="129" y="686"/>
      <point x="122" y="700"/>
      <point x="95" y="700" type="curve" smooth="yes"/>
      <point x="52" y="700" type="line" smooth="yes"/>
      <point x="40" y="700"/>
      <point x="30" y="690"/>
      <point x="30" y="678" type="curve" smooth="yes"/>
      <point x="30" y="674"/>
      <point x="31" y="671"/>
      <point x="35" y="664" type="curve" smooth="yes"/>
      <point x="246" y="308" type="line"/>
    </contour>
  </outline>
</glyph>
<glyph name="brokenbar" format="1">
  <advance width="243"/>
  <unicode hex="00A6"/>
  <outline>
    <contour>
      <point x="167" y="802" type="line" name="hr00" smooth="yes"/>
      <point x="167" y="817"/>
      <point x="155" y="829"/>
      <point x="140" y="829" type="curve" smooth="yes"/>
      <point x="103" y="829" type="line" smooth="yes"/>
      <point x="88" y="829"/>
      <point x="76" y="817"/>
      <point x="76" y="802" type="curve" smooth="yes"/>
      <point x="76" y="502" type="line" smooth="yes"/>
      <point x="76" y="487"/>
      <point x="88" y="475"/>
      <point x="103" y="475" type="curve" smooth="yes"/>
      <point x="140" y="475" type="line" smooth="yes"/>
      <point x="155" y="475"/>
      <point x="167" y="487"/>
      <point x="167" y="502" type="curve" smooth="yes"/>
    </contour>
    <contour>
      <point x="167" y="327" type="line" smooth="yes"/>
      <point x="167" y="342"/>
      <point x="155" y="354"/>
      <point x="140" y="354" type="curve" smooth="yes"/>
      <point x="103" y="354" type="line" smooth="yes"/>
      <point x="88" y="354"/>
      <point x="76" y="342"/>
      <point x="76" y="327" type="curve" smooth="yes"/>
      <point x="76" y="27" type="line" smooth="yes"/>
      <point x="76" y="12"/>
      <point x="88" y="0"/>
      <point x="103" y="0" type="curve" smooth="yes"/>
      <point x="140" y="0" type="line" smooth="yes"/>
      <point x="155" y="0"/>
      <point x="167" y="12"/>
      <point x="167" y="27" type="curve" smooth="yes"/>
    </contour>
  </outline>
</glyph>
<glyph name="acute" format="1">
  <advance width="331"/>
  <unicode hex="00B4"/>
  <outline>
    <contour>
      <point x="70" y="624" type="line" name="hr00" smooth="yes"/>
      <point x="67" y="621"/>
      <point x="65" y="616"/>
      <point x="65" y="611" type="curve" smooth="yes"/>
      <point x="65" y="601"/>
      <point x="71" y="595"/>
      <point x="81" y="595" type="curve" smooth="yes"/>
      <point x="118" y="595" type="line" smooth="yes"/>
      <point x="139" y="595"/>
      <point x="149" y="603"/>
      <point x="160" y="612" type="curve" smooth="yes"/>
      <point x="271" y="703" type="line" smooth="yes"/>
      <point x="274" y="706"/>
      <point x="276" y="710"/>
      <point x="276" y="715" type="curve" smooth="yes"/>
      <point x="276" y="727"/>
      <point x="269" y="735"/>
      <point x="257" y="735" type="curve" smooth="yes"/>
      <point x="183" y="735" type="line" smooth="yes"/>
      <point x="168" y="735"/>
      <point x="161" y="733"/>
      <point x="146" y="716" type="curve" smooth="yes"/>
    </contour>
  </outline>
</glyph>
<glyph name="mu" format="1">
  <advance width="603"/>
  <unicode hex="00B5"/>
  <outline>
    <contour>
      <point x="162" y="58" type="line"/>
      <point x="187" y="25"/>
      <point x="221" y="-10"/>
      <point x="302" y="-10" type="curve" smooth="yes"/>
      <point x="383" y="-10"/>
      <point x="417" y="25"/>
      <point x="442" y="58" type="curve"/>
      <point x="442" y="27" type="line" smooth="yes"/>
      <point x="442" y="12"/>
      <point x="454" y="0"/>
      <point x="469" y="0" type="curve" name="hr01" smooth="yes"/>
      <point x="506" y="0" type="line" smooth="yes"/>
      <point x="521" y="0"/>
      <point x="533" y="12"/>
      <point x="533" y="27" type="curve" smooth="yes"/>
      <point x="533" y="493" type="line" smooth="yes"/>
      <point x="533" y="508"/>
      <point x="521" y="520"/>
      <point x="506" y="520" type="curve" smooth="yes"/>
      <point x="469" y="520" type="line" smooth="yes"/>
      <point x="454" y="520"/>
      <point x="442" y="508"/>
      <point x="442" y="493" type="curve" smooth="yes"/>
      <point x="442" y="229" type="line" smooth="yes"/>
      <point x="442" y="127"/>
      <point x="386" y="76"/>
      <point x="302" y="76" type="curve" name="hr02" smooth="yes"/>
      <point x="218" y="76"/>
      <point x="162" y="127"/>
      <point x="162" y="229" type="curve" smooth="yes"/>
      <point x="162" y="493" type="line" smooth="yes"/>
      <point x="162" y="508"/>
      <point x="150" y="520"/>
      <point x="135" y="520" type="curve" smooth="yes"/>
      <point x="98" y="520" type="line" smooth="yes"/>
      <point x="83" y="520"/>
      <point x="71" y="508"/>
      <point x="71" y="493" type="curve" smooth="yes"/>
      <point x="71" y="-173" type="line" smooth="yes"/>
      <point x="71" y="-188"/>
      <point x="83" y="-200"/>
      <point x="98" y="-200" type="curve" smooth="yes"/>
      <point x="135" y="-200" type="line" smooth="yes"/>
      <point x="150" y="-200"/>
      <point x="162" y="-188"/>
      <point x="162" y="-173" type="curve" smooth="yes"/>
    </contour>
  </outline>
</glyph>
<glyph name="periodcentered" format="1">
  <advance width="330"/>
  <unicode hex="00B7"/>
  <outline>
    <contour>
      <point x="55" y="300" type="curve" name="hr00" smooth="yes"/>
      <point x="55" y="239"/>
      <point x="104" y="190"/>
      <point x="165" y="190" type="curve" smooth="yes"/>
      <point x="226" y="190"/>
      <point x="275" y="239"/>
      <point x="275" y="300" type="curve" smooth="yes"/>
      <point x="275" y="361"/>
      <point x="226" y="410"/>
      <point x="165" y="410" type="curve" smooth="yes"/>
      <point x="104" y="410"/>
      <point x="55" y="361"/>
    </contour>
  </outline>
</glyph>
<glyph name="ae" format="1">
  <advance width="893"/>
  <unicode hex="00E6"/>
  <outline>
    <contour>
      <point x="38" y="131" type="curve" smooth="yes"/>
      <point x="38" y="51"/>
      <point x="107" y="-10"/>
      <point x="212" y="-10" type="curve" smooth="yes"/>
      <point x="320" y="-10"/>
      <point x="380" y="28"/>
      <point x="428" y="91" type="curve"/>
      <point x="468" y="29"/>
      <point x="532" y="-10"/>
      <point x="616" y="-10" type="curve" smooth="yes"/>
      <point x="758" y="-10"/>
      <point x="825" y="65"/>
      <point x="832" y="113" type="curve" smooth="yes"/>
      <point x="834" y="128"/>
      <point x="820" y="140"/>
      <point x="805" y="140" type="curve" name="hr01"/>
      <point x="775" y="140" type="line"/>
      <point x="759" y="140"/>
      <point x="753" y="136"/>
      <point x="743" y="126" type="curve" smooth="yes"/>
      <point x="720" y="101"/>
      <point x="690" y="76"/>
      <point x="616" y="76" type="curve" name="hr02" smooth="yes"/>
      <point x="537" y="76"/>
      <point x="479" y="127"/>
      <point x="476" y="217" type="curve"/>
      <point x="476" y="223" type="line"/>
      <point x="820" y="223" type="line"/>
      <point x="835" y="223"/>
      <point x="847" y="235"/>
      <point x="847" y="250" type="curve"/>
      <point x="847" y="277" type="line"/>
      <point x="847" y="432"/>
      <point x="759" y="530"/>
      <point x="616" y="530" type="curve" smooth="yes"/>
      <point x="541" y="530"/>
      <point x="481" y="499"/>
      <point x="442" y="450" type="curve"/>
      <point x="406" y="502"/>
      <point x="343" y="530"/>
      <point x="267" y="530" type="curve" smooth="yes"/>
      <point x="162" y="530"/>
      <point x="78" y="463"/>
      <point x="73" y="403" type="curve" smooth="yes"/>
      <point x="72" y="388"/>
      <point x="85" y="376"/>
      <point x="100" y="376" type="curve"/>
      <point x="130" y="376" type="line"/>
      <point x="146" y="376"/>
      <point x="154" y="379"/>
      <point x="162" y="390" type="curve" smooth="yes"/>
      <point x="184" y="420"/>
      <point x="208" y="444"/>
      <point x="267" y="444" type="curve" name="hr03" smooth="yes"/>
      <point x="333" y="444"/>
      <point x="384" y="410"/>
      <point x="384" y="342" type="curve"/>
      <point x="384" y="329" type="line"/>
      <point x="243" y="306" type="line"/>
      <point x="130" y="288"/>
      <point x="38" y="238"/>
    </contour>
    <contour>
      <point x="222" y="76" type="curve" smooth="yes"/>
      <point x="153" y="76"/>
      <point x="129" y="113"/>
      <point x="129" y="141" type="curve" smooth="yes"/>
      <point x="129" y="188"/>
      <point x="183" y="217"/>
      <point x="266" y="230" type="curve"/>
      <point x="384" y="249" type="line"/>
      <point x="384" y="224" type="line"/>
      <point x="384" y="137"/>
      <point x="319" y="76"/>
    </contour>
    <contour>
      <point x="476" y="310" type="line"/>
      <point x="478" y="391"/>
      <point x="540" y="444"/>
      <point x="616" y="444" type="curve" smooth="yes"/>
      <point x="701" y="444"/>
      <point x="757" y="391"/>
      <point x="757" y="310" type="curve"/>
      <point x="757" y="307" type="line"/>
      <point x="476" y="307" type="line"/>
    </contour>
  </outline>
</glyph>
<glyph name="thorn" format="1">
  <advance width="599"/>
  <unicode hex="00FE"/>
  <outline>
    <contour>
      <point x="322" y="-10" type="curve" name="hr00" smooth="yes"/>
      <point x="447" y="-10"/>
      <point x="542" y="80"/>
      <point x="549" y="227" type="curve" smooth="yes"/>
      <point x="550" y="247"/>
      <point x="550" y="272"/>
      <point x="549" y="292" type="curve" smooth="yes"/>
      <point x="542" y="439"/>
      <point x="447" y="530"/>
      <point x="322" y="530" type="curve" smooth="yes"/>
      <point x="241" y="530"/>
      <point x="194" y="498"/>
      <point x="167" y="462" type="curve"/>
      <point x="167" y="683" type="line" smooth="yes"/>
      <point x="167" y="698"/>
      <point x="155" y="710"/>
      <point x="140" y="710" type="curve" smooth="yes"/>
      <point x="103" y="710" type="line" smooth="yes"/>
      <point x="88" y="710"/>
      <point x="76" y="698"/>
      <point x="76" y="683" type="curve" smooth="yes"/>
      <point x="76" y="-163" type="line" smooth="yes"/>
      <point x="76" y="-178"/>
      <point x="88" y="-190"/>
      <point x="103" y="-190" type="curve" smooth="yes"/>
      <point x="140" y="-190" type="line" smooth="yes"/>
      <point x="155" y="-190"/>
      <point x="167" y="-178"/>
      <point x="167" y="-163" type="curve" smooth="yes"/>
      <point x="167" y="58" type="line"/>
      <point x="192" y="25"/>
      <point x="240" y="-10"/>
    </contour>
    <contour>
      <point x="167" y="303" type="curve" smooth="yes"/>
      <point x="171" y="389"/>
      <point x="230" y="444"/>
      <point x="312" y="444" type="curve" smooth="yes"/>
      <point x="399" y="444"/>
      <point x="453" y="384"/>
      <point x="458" y="288" type="curve" smooth="yes"/>
      <point x="459" y="268"/>
      <point x="459" y="252"/>
      <point x="458" y="232" type="curve" smooth="yes"/>
      <point x="453" y="136"/>
      <point x="399" y="76"/>
      <point x="312" y="76" type="curve" smooth="yes"/>
      <point x="228" y="76"/>
      <point x="171" y="130"/>
      <point x="167" y="224" type="curve" smooth="yes"/>
      <point x="166" y="244"/>
      <point x="166" y="283"/>
    </contour>
  </outline>
</glyph>
<glyph name="Aogonek" format="1">
  <advance width="680"/>
  <unicode hex="0104"/>
  <outline>
    <contour>
      <point x="628" y="-220" type="line"/>
      <point x="641" y="-220"/>
      <point x="650" y="-211"/>
      <point x="650" y="-198" type="curve"/>
      <point x="650" y="-170" type="line"/>
      <point x="650" y="-157"/>
      <point x="641" y="-148"/>
      <point x="628" y="-148" type="curve"/>
      <point x="613" y="-148" type="line"/>
      <point x="569" y="-148"/>
      <point x="547" y="-125"/>
      <point x="547" y="-74" type="curve" name="hr01" smooth="yes"/>
      <point x="547" y="-23"/>
      <point x="569" y="0"/>
      <point x="613" y="0" type="curve"/>
      <point x="641" y="0" type="line"/>
      <point x="653" y="0"/>
      <point x="663" y="10"/>
      <point x="663" y="22" type="curve" smooth="yes"/>
      <point x="663" y="24"/>
      <point x="662" y="29"/>
      <point x="659" y="36" type="curve"/>
      <point x="415" y="667" type="line"/>
      <point x="409" y="682"/>
      <point x="397" y="700"/>
      <point x="370" y="700" type="curve"/>
      <point x="310" y="700" type="line"/>
      <point x="283" y="700"/>
      <point x="271" y="682"/>
      <point x="265" y="667" type="curve"/>
      <point x="20" y="36" type="line"/>
      <point x="17" y="29"/>
      <point x="16" y="24"/>
      <point x="16" y="22" type="curve" smooth="yes"/>
      <point x="16" y="10"/>
      <point x="26" y="0"/>
      <point x="38" y="0" type="curve"/>
      <point x="75" y="0" type="line"/>
      <point x="101" y="0"/>
      <point x="110" y="14"/>
      <point x="114" y="25" type="curve"/>
      <point x="166" y="158" type="line"/>
      <point x="513" y="158" type="line"/>
      <point x="550" y="62" type="line"/>
      <point x="500" y="42"/>
      <point x="466" y="-3"/>
      <point x="466" y="-74" type="curve" smooth="yes"/>
      <point x="466" y="-169"/>
      <point x="528" y="-220"/>
      <point x="609" y="-220" type="curve"/>
    </contour>
    <contour>
      <point x="340" y="605" type="line"/>
      <point x="478" y="248" type="line"/>
      <point x="201" y="248" type="line"/>
    </contour>
  </outline>
</glyph>
<glyph name="eogonek" format="1">
  <advance width="557"/>
  <unicode hex="0119"/>
  <outline>
    <contour>
      <point x="51" y="310" type="curve" smooth="yes"/>
      <point x="48" y="280"/>
      <point x="48" y="248"/>
      <point x="51" y="218" type="curve" smooth="yes"/>
      <point x="60" y="120"/>
      <point x="110" y="40"/>
      <point x="190" y="7" type="curve"/>
      <point x="178" y="-15"/>
      <point x="171" y="-42"/>
      <point x="171" y="-74" type="curve" smooth="yes"/>
      <point x="171" y="-169"/>
      <point x="233" y="-220"/>
      <point x="314" y="-220" type="curve"/>
      <point x="333" y="-220" type="line"/>
      <point x="346" y="-220"/>
      <point x="355" y="-211"/>
      <point x="355" y="-198" type="curve"/>
      <point x="355" y="-170" type="line"/>
      <point x="355" y="-157"/>
      <point x="346" y="-148"/>
      <point x="333" y="-148" type="curve"/>
      <point x="318" y="-148" type="line"/>
      <point x="274" y="-148"/>
      <point x="252" y="-125"/>
      <point x="252" y="-74" type="curve" name="hr01" smooth="yes"/>
      <point x="252" y="-28"/>
      <point x="273" y="-15"/>
      <point x="313" y="-8" type="curve"/>
      <point x="432" y="2"/>
      <point x="489" y="69"/>
      <point x="496" y="113" type="curve" smooth="yes"/>
      <point x="498" y="128"/>
      <point x="484" y="140"/>
      <point x="469" y="140" type="curve"/>
      <point x="439" y="140" type="line"/>
      <point x="423" y="140"/>
      <point x="417" y="136"/>
      <point x="407" y="126" type="curve" smooth="yes"/>
      <point x="384" y="101"/>
      <point x="354" y="76"/>
      <point x="280" y="76" type="curve" smooth="yes"/>
      <point x="201" y="76"/>
      <point x="143" y="127"/>
      <point x="140" y="217" type="curve"/>
      <point x="140" y="223" type="line"/>
      <point x="484" y="223" type="line"/>
      <point x="499" y="223"/>
      <point x="511" y="235"/>
      <point x="511" y="250" type="curve"/>
      <point x="511" y="277" type="line"/>
      <point x="511" y="432"/>
      <point x="423" y="530"/>
      <point x="280" y="530" type="curve" smooth="yes"/>
      <point x="147" y="530"/>
      <point x="63" y="432"/>
    </contour>
    <contour>
      <point x="140" y="310" type="line"/>
      <point x="142" y="391"/>
      <point x="204" y="444"/>
      <point x="280" y="444" type="curve" smooth="yes"/>
      <point x="365" y="444"/>
      <point x="421" y="391"/>
      <point x="421" y="310" type="curve"/>
      <point x="421" y="307" type="line"/>
      <point x="140" y="307" type="line"/>
    </contour>
  </outline>
</glyph>
<glyph name="IJ" format="1">
  <advance width="625"/>
  <unicode hex="0132"/>
  <outline>
    <contour>
      <point x="261" y="53" type="curve"/>
      <point x="261" y="17" type="line" smooth="yes"/>
      <point x="261" y="2"/>
      <point x="273" y="-10"/>
      <point x="288" y="-10" type="curve" smooth="yes"/>
      <point x="455" y="-10"/>
      <point x="545" y="94"/>
      <point x="545" y="245" type="curve" smooth="yes"/>
      <point x="545" y="673" type="line" smooth="yes"/>
      <point x="545" y="688"/>
      <point x="533" y="700"/>
      <point x="518" y="700" type="curve" smooth="yes"/>
      <point x="477" y="700" type="line" smooth="yes"/>
      <point x="462" y="700"/>
      <point x="450" y="688"/>
      <point x="450" y="673" type="curve" smooth="yes"/>
      <point x="450" y="255" type="line"/>
      <point x="449" y="144"/>
      <point x="404" y="80"/>
      <point x="288" y="80" type="curve" smooth="yes"/>
      <point x="273" y="80"/>
      <point x="261" y="68"/>
    </contour>
    <contour>
      <point x="154" y="0" type="line" name="hr01" smooth="yes"/>
      <point x="169" y="0"/>
      <point x="181" y="12"/>
      <point x="181" y="27" type="curve" smooth="yes"/>
      <point x="181" y="673" type="line" smooth="yes"/>
      <point x="181" y="688"/>
      <point x="169" y="700"/>
      <point x="154" y="700" type="curve" smooth="yes"/>
      <point x="113" y="700" type="line" smooth="yes"/>
      <point x="98" y="700"/>
      <point x="86" y="688"/>
      <point x="86" y="673" type="curve" smooth="yes"/>
      <point x="86" y="27" type="line" smooth="yes"/>
      <point x="86" y="12"/>
      <point x="98" y="0"/>
      <point x="113" y="0" type="curve" smooth="yes"/>
    </contour>
  </outline>
</glyph>
<glyph name="oe" format="1">
  <advance width="945"/>
  <unicode hex="0153"/>
  <outline>
    <contour>
      <point x="288" y="530" type="curve" smooth="yes"/>
      <point x="145" y="530"/>
      <point x="62" y="439"/>
      <point x="51" y="307" type="curve" smooth="yes"/>
      <point x="49" y="284"/>
      <point x="49" y="234"/>
      <point x="51" y="213" type="curve" smooth="yes"/>
      <point x="63" y="81"/>
      <point x="145" y="-10"/>
      <point x="288" y="-10" type="curve" smooth="yes"/>
      <point x="378" y="-10"/>
      <point x="443" y="26"/>
      <point x="483" y="85" type="curve"/>
      <point x="522" y="27"/>
      <point x="586" y="-10"/>
      <point x="667" y="-10" type="curve" smooth="yes"/>
      <point x="809" y="-10"/>
      <point x="876" y="65"/>
      <point x="883" y="113" type="curve" smooth="yes"/>
      <point x="885" y="128"/>
      <point x="871" y="140"/>
      <point x="856" y="140" type="curve" name="hr01"/>
      <point x="826" y="140" type="line"/>
      <point x="810" y="140"/>
      <point x="804" y="136"/>
      <point x="794" y="126" type="curve" smooth="yes"/>
      <point x="771" y="101"/>
      <point x="741" y="76"/>
      <point x="667" y="76" type="curve" name="hr02" smooth="yes"/>
      <point x="588" y="76"/>
      <point x="530" y="127"/>
      <point x="527" y="217" type="curve"/>
      <point x="527" y="223" type="line"/>
      <point x="871" y="223" type="line"/>
      <point x="886" y="223"/>
      <point x="898" y="235"/>
      <point x="898" y="250" type="curve"/>
      <point x="898" y="277" type="line"/>
      <point x="898" y="432"/>
      <point x="810" y="530"/>
      <point x="667" y="530" type="curve" smooth="yes"/>
      <point x="585" y="530"/>
      <point x="522" y="493"/>
      <point x="482" y="436" type="curve"/>
      <point x="443" y="494"/>
      <point x="377" y="530"/>
    </contour>
    <contour>
      <point x="434" y="218" type="curve" smooth="yes"/>
      <point x="426" y="137"/>
      <point x="381" y="76"/>
      <point x="288" y="76" type="curve" smooth="yes"/>
      <point x="195" y="76"/>
      <point x="149" y="137"/>
      <point x="142" y="218" type="curve" smooth="yes"/>
      <point x="140" y="240"/>
      <point x="140" y="278"/>
      <point x="142" y="302" type="curve" smooth="yes"/>
      <point x="149" y="383"/>
      <point x="195" y="444"/>
      <point x="288" y="444" type="curve" smooth="yes"/>
      <point x="381" y="444"/>
      <point x="427" y="383"/>
      <point x="434" y="302" type="curve" smooth="yes"/>
      <point x="436" y="278"/>
      <point x="436" y="240"/>
    </contour>
    <contour>
      <point x="527" y="310" type="line"/>
      <point x="529" y="391"/>
      <point x="591" y="444"/>
      <point x="667" y="444" type="curve" smooth="yes"/>
      <point x="752" y="444"/>
      <point x="808" y="391"/>
      <point x="808" y="310" type="curve"/>
      <point x="808" y="307" type="line"/>
      <point x="527" y="307" type="line"/>
    </contour>
  </outline>
</glyph>
<glyph name="scedilla" format="1">
  <advance width="505"/>
  <unicode hex="015F"/>
  <outline>
    <contour>
      <point x="371" y="144" type="curve" smooth="yes"/>
      <point x="371" y="104"/>
      <point x="313" y="76"/>
      <point x="253" y="76" type="curve" smooth="yes"/>
      <point x="193" y="76"/>
      <point x="157" y="93"/>
      <point x="136" y="122" type="curve" smooth="yes"/>
      <point x="127" y="135"/>
      <point x="115" y="135"/>
      <point x="107" y="135" type="curve"/>
      <point x="71" y="135" type="line"/>
      <point x="55" y="135"/>
      <point x="43" y="123"/>
      <point x="44" y="108" type="curve" smooth="yes"/>
      <point x="46" y="67"/>
      <point x="104" y="8"/>
      <point x="203" y="-6" type="curve"/>
      <point x="183" y="-53" type="line"/>
      <point x="179" y="-63"/>
      <point x="174" y="-75"/>
      <point x="181" y="-83" type="curve"/>
      <point x="198" y="-101" type="line"/>
      <point x="213" y="-117"/>
      <point x="220" y="-99"/>
      <point x="252" y="-99" type="curve" smooth="yes"/>
      <point x="281" y="-99"/>
      <point x="295" y="-110"/>
      <point x="295" y="-134" type="curve" smooth="yes"/>
      <point x="295" y="-159"/>
      <point x="280" y="-169"/>
      <point x="252" y="-169" type="curve" smooth="yes"/>
      <point x="216" y="-169"/>
      <point x="210" y="-137"/>
      <point x="189" y="-156" type="curve"/>
      <point x="175" y="-169" type="line"/>
      <point x="156" y="-187"/>
      <point x="205" y="-220"/>
      <point x="252" y="-220" type="curve" smooth="yes"/>
      <point x="322" y="-220"/>
      <point x="351" y="-180"/>
      <point x="351" y="-132" type="curve" smooth="yes"/>
      <point x="351" y="-84"/>
      <point x="319" y="-48"/>
      <point x="275" y="-48" type="curve" smooth="yes"/>
      <point x="260" y="-48"/>
      <point x="248" y="-51"/>
      <point x="240" y="-56" type="curve"/>
      <point x="261" y="-10" type="line"/>
      <point x="386" y="-7"/>
      <point x="462" y="66"/>
      <point x="462" y="144" type="curve" smooth="yes"/>
      <point x="462" y="214"/>
      <point x="423" y="270"/>
      <point x="300" y="297" type="curve" smooth="yes"/>
      <point x="183" y="323"/>
      <point x="145" y="330"/>
      <point x="145" y="380" type="curve" smooth="yes"/>
      <point x="145" y="420"/>
      <point x="187" y="444"/>
      <point x="248" y="444" type="curve" smooth="yes"/>
      <point x="308" y="444"/>
      <point x="340" y="426"/>
      <point x="357" y="404" type="curve" smooth="yes"/>
      <point x="366" y="392"/>
      <point x="379" y="390"/>
      <point x="387" y="390" type="curve" name="hr01"/>
      <point x="420" y="390" type="line"/>
      <point x="435" y="390"/>
      <point x="448" y="402"/>
      <point x="447" y="417" type="curve" smooth="yes"/>
      <point x="444" y="464"/>
      <point x="378" y="530"/>
      <point x="248" y="530" type="curve" smooth="yes"/>
      <point x="118" y="530"/>
      <point x="54" y="460"/>
      <point x="54" y="380" type="curve" smooth="yes"/>
      <point x="54" y="310"/>
      <point x="92" y="254"/>
      <point x="200" y="231" type="curve" smooth="yes"/>
      <point x="316" y="206"/>
      <point x="371" y="194"/>
    </contour>
  </outline>
</glyph>
<glyph name="florin" format="1">
  <advance width="416"/>
  <unicode hex="0192"/>
  <outline>
    <contour>
      <point x="140" y="-50" type="line" smooth="yes"/>
      <point x="140" y="-101"/>
      <point x="126" y="-139"/>
      <point x="56" y="-139" type="curve" smooth="yes"/>
      <point x="42" y="-139" type="line" smooth="yes"/>
      <point x="27" y="-139"/>
      <point x="15" y="-151"/>
      <point x="15" y="-166" type="curve" name="hr01" smooth="yes"/>
      <point x="15" y="-198" type="line" smooth="yes"/>
      <point x="15" y="-213"/>
      <point x="27" y="-225"/>
      <point x="42" y="-225" type="curve" smooth="yes"/>
      <point x="66" y="-225" type="line" smooth="yes"/>
      <point x="181" y="-225"/>
      <point x="231" y="-163"/>
      <point x="231" y="-50" type="curve" smooth="yes"/>
      <point x="231" y="434" type="line"/>
      <point x="358" y="434" type="line" smooth="yes"/>
      <point x="373" y="434"/>
      <point x="385" y="446"/>
      <point x="385" y="461" type="curve" name="hr02" smooth="yes"/>
      <point x="385" y="493" type="line" smooth="yes"/>
      <point x="385" y="508"/>
      <point x="373" y="520"/>
      <point x="358" y="520" type="curve" smooth="yes"/>
      <point x="231" y="520" type="line" name="hr03"/>
      <point x="231" y="565" type="line" smooth="yes"/>
      <point x="231" y="616"/>
      <point x="245" y="654"/>
      <point x="315" y="654" type="curve" smooth="yes"/>
      <point x="368" y="654" type="line" smooth="yes"/>
      <point x="383" y="654"/>
      <point x="395" y="666"/>
      <point x="395" y="681" type="curve" smooth="yes"/>
      <point x="395" y="713" type="line" smooth="yes"/>
      <point x="395" y="728"/>
      <point x="383" y="740"/>
      <point x="368" y="740" type="curve" smooth="yes"/>
      <point x="305" y="740" type="line" smooth="yes"/>
      <point x="190" y="740"/>
      <point x="140" y="683"/>
      <point x="140" y="570" type="curve" name="hr04" smooth="yes"/>
      <point x="140" y="520" type="line"/>
      <point x="56" y="520" type="line" smooth="yes"/>
      <point x="41" y="520"/>
      <point x="29" y="508"/>
      <point x="29" y="493" type="curve" smooth="yes"/>
      <point x="29" y="461" type="line" smooth="yes"/>
      <point x="29" y="446"/>
      <point x="41" y="434"/>
      <point x="56" y="434" type="curve" smooth="yes"/>
      <point x="140" y="434" type="line"/>
    </contour>
  </outline>
</glyph>
<glyph name="dotaccent" format="1">
  <advance width="241"/>
  <unicode hex="02D9"/>
  <outline>
    <contour>
      <point x="175" y="684" type="line" name="hr00" smooth="yes"/>
      <point x="175" y="699"/>
      <point x="163" y="711"/>
      <point x="148" y="711" type="curve" smooth="yes"/>
      <point x="91" y="711" type="line" smooth="yes"/>
      <point x="76" y="711"/>
      <point x="64" y="699"/>
      <point x="64" y="684" type="curve" smooth="yes"/>
      <point x="64" y="627" type="line" smooth="yes"/>
      <point x="64" y="612"/>
      <point x="76" y="600"/>
      <point x="91" y="600" type="curve" smooth="yes"/>
      <point x="148" y="600" type="line" smooth="yes"/>
      <point x="163" y="600"/>
      <point x="175" y="612"/>
      <point x="175" y="627" type="curve" smooth="yes"/>
    </contour>
  </outline>
</glyph>
<glyph name="afii10021" format="1">
  <advance width="705"/>
  <unicode hex="0414"/>
  <outline>
    <contour>
      <point x="139" y="209" type="line" smooth="yes"/>
      <point x="139" y="115"/>
      <point x="116" y="90"/>
      <point x="59" y="90" type="curve" smooth="yes"/>
      <point x="43" y="90" type="line" smooth="yes"/>
      <point x="28" y="90"/>
      <point x="16" y="78"/>
      <point x="16" y="63" type="curve" smooth="yes"/>
      <point x="16" y="-83" type="line" smooth="yes"/>
      <point x="16" y="-98"/>
      <point x="28" y="-110"/>
      <point x="43" y="-110" type="curve" smooth="yes"/>
      <point x="84" y="-110" type="line" smooth="yes"/>
      <point x="99" y="-110"/>
      <point x="111" y="-98"/>
      <point x="111" y="-83" type="curve" smooth="yes"/>
      <point x="111" y="0" type="line" name="hr01"/>
      <point x="560" y="0" type="line"/>
      <point x="560" y="-83" type="line" smooth="yes"/>
      <point x="560" y="-98"/>
      <point x="572" y="-110"/>
      <point x="587" y="-110" type="curve" name="hr02" smooth="yes"/>
      <point x="628" y="-110" type="line" smooth="yes"/>
      <point x="643" y="-110"/>
      <point x="655" y="-98"/>
      <point x="655" y="-83" type="curve" smooth="yes"/>
      <point x="655" y="63" type="line" smooth="yes"/>
      <point x="655" y="78"/>
      <point x="643" y="90"/>
      <point x="628" y="90" type="curve" smooth="yes"/>
      <point x="605" y="90" type="line" name="hr03"/>
      <point x="605" y="673" type="line" smooth="yes"/>
      <point x="605" y="688"/>
      <point x="593" y="700"/>
      <point x="578" y="700" type="curve" smooth="yes"/>
      <point x="166" y="700" type="line" smooth="yes"/>
      <point x="151" y="700"/>
      <point x="139" y="688"/>
      <point x="139" y="673" type="curve" smooth="yes"/>
    </contour>
    <contour>
      <point x="234" y="610" type="line"/>
      <point x="510" y="610" type="line"/>
      <point x="510" y="90" type="line"/>
      <point x="212" y="90" type="line"/>
      <point x="231" y="114"/>
      <point x="234" y="160"/>
      <point x="234" y="192" type="curve" smooth="yes"/>
    </contour>
  </outline>
</glyph>
<glyph name="afii10024" format="1">
  <advance width="709"/>
  <unicode hex="0416"/>
  <outline>
    <contour>
      <point x="334" y="0" type="curve" name="hr00"/>
      <point x="375" y="0" type="line"/>
      <point x="390" y="0"/>
      <point x="402" y="12"/>
      <point x="402" y="27" type="curve"/>
      <point x="402" y="267" type="line"/>
      <point x="580" y="23" type="line"/>
      <point x="586" y="15"/>
      <point x="595" y="0"/>
      <point x="621" y="0" type="curve"/>
      <point x="664" y="0" type="line"/>
      <point x="676" y="0"/>
      <point x="686" y="10"/>
      <point x="686" y="22" type="curve" smooth="yes"/>
      <point x="686" y="24"/>
      <point x="686" y="28"/>
      <point x="683" y="33" type="curve"/>
      <point x="447" y="357" type="line"/>
      <point x="673" y="667" type="line"/>
      <point x="675" y="671"/>
      <point x="676" y="673"/>
      <point x="676" y="678" type="curve" smooth="yes"/>
      <point x="676" y="690"/>
      <point x="666" y="700"/>
      <point x="654" y="700" type="curve"/>
      <point x="607" y="700" type="line"/>
      <point x="581" y="700"/>
      <point x="570" y="682"/>
      <point x="565" y="675" type="curve"/>
      <point x="402" y="451" type="line"/>
      <point x="402" y="673" type="line"/>
      <point x="402" y="688"/>
      <point x="390" y="700"/>
      <point x="375" y="700" type="curve"/>
      <point x="334" y="700" type="line"/>
      <point x="319" y="700"/>
      <point x="307" y="688"/>
      <point x="307" y="673" type="curve"/>
      <point x="307" y="451" type="line"/>
      <point x="144" y="675" type="line"/>
      <point x="139" y="682"/>
      <point x="128" y="700"/>
      <point x="102" y="700" type="curve"/>
      <point x="55" y="700" type="line"/>
      <point x="43" y="700"/>
      <point x="33" y="690"/>
      <point x="33" y="678" type="curve" smooth="yes"/>
      <point x="33" y="673"/>
      <point x="34" y="671"/>
      <point x="36" y="667" type="curve"/>
      <point x="262" y="357" type="line"/>
      <point x="26" y="33" type="line"/>
      <point x="23" y="28"/>
      <point x="23" y="24"/>
      <point x="23" y="22" type="curve" smooth="yes"/>
      <point x="23" y="10"/>
      <point x="33" y="0"/>
      <point x="45" y="0" type="curve"/>
      <point x="88" y="0" type="line"/>
      <point x="114" y="0"/>
      <point x="123" y="15"/>
      <point x="129" y="23" type="curve"/>
      <point x="307" y="267" type="line"/>
      <point x="307" y="27" type="line"/>
      <point x="307" y="12"/>
      <point x="319" y="0"/>
    </contour>
  </outline>
</glyph>
<glyph name="afii10025" format="1">
  <advance width="635"/>
  <unicode hex="0417"/>
  <outline>
    <contour>
      <point x="308" y="710" type="curve" smooth="yes"/>
      <point x="138" y="710"/>
      <point x="61" y="591"/>
      <point x="58" y="524" type="curve" smooth="yes"/>
      <point x="57" y="512"/>
      <point x="68" y="502"/>
      <point x="80" y="502" type="curve" smooth="yes"/>
      <point x="126" y="502" type="line" smooth="yes"/>
      <point x="137" y="502"/>
      <point x="147" y="510"/>
      <point x="152" y="524" type="curve" smooth="yes"/>
      <point x="168" y="571"/>
      <point x="219" y="620"/>
      <point x="308" y="620" type="curve" name="hr01" smooth="yes"/>
      <point x="396" y="620"/>
      <point x="468" y="582"/>
      <point x="468" y="513" type="curve" smooth="yes"/>
      <point x="468" y="444"/>
      <point x="396" y="406"/>
      <point x="308" y="406" type="curve" smooth="yes"/>
      <point x="256" y="406" type="line" smooth="yes"/>
      <point x="241" y="406"/>
      <point x="229" y="394"/>
      <point x="229" y="379" type="curve" smooth="yes"/>
      <point x="229" y="343" type="line" smooth="yes"/>
      <point x="229" y="328"/>
      <point x="241" y="316"/>
      <point x="256" y="316" type="curve" smooth="yes"/>
      <point x="315" y="316" type="line"/>
      <point x="411" y="314"/>
      <point x="488" y="272"/>
      <point x="488" y="198" type="curve" name="hr02" smooth="yes"/>
      <point x="488" y="122"/>
      <point x="406" y="80"/>
      <point x="307" y="80" type="curve" name="hr03"/>
      <point x="208" y="80"/>
      <point x="147" y="129"/>
      <point x="131" y="176" type="curve" smooth="yes"/>
      <point x="126" y="190"/>
      <point x="116" y="198"/>
      <point x="105" y="198" type="curve" name="hr04" smooth="yes"/>
      <point x="59" y="198" type="line" smooth="yes"/>
      <point x="47" y="198"/>
      <point x="36" y="188"/>
      <point x="37" y="176" type="curve" smooth="yes"/>
      <point x="40" y="109"/>
      <point x="127" y="-10"/>
      <point x="307" y="-10" type="curve"/>
      <point x="460" y="-10"/>
      <point x="583" y="63"/>
      <point x="583" y="198" type="curve" smooth="yes"/>
      <point x="583" y="273"/>
      <point x="545" y="329"/>
      <point x="485" y="364" type="curve"/>
      <point x="533" y="397"/>
      <point x="563" y="447"/>
      <point x="563" y="513" type="curve" name="hr05" smooth="yes"/>
      <point x="563" y="642"/>
      <point x="449" y="710"/>
    </contour>
  </outline>
</glyph>
<glyph name="afii10042" format="1">
  <advance width="889"/>
  <unicode hex="0428"/>
  <outline>
    <contour>
      <point x="776" y="0" type="line" name="hr00" smooth="yes"/>
      <point x="791" y="0"/>
      <point x="803" y="12"/>
      <point x="803" y="27" type="curve" smooth="yes"/>
      <point x="803" y="673" type="line" smooth="yes"/>
      <point x="803" y="688"/>
      <point x="791" y="700"/>
      <point x="776" y="700" type="curve" smooth="yes"/>
      <point x="735" y="700" type="line" smooth="yes"/>
      <point x="720" y="700"/>
      <point x="708" y="688"/>
      <point x="708" y="673" type="curve" smooth="yes"/>
      <point x="708" y="90" type="line"/>
      <point x="492" y="90" type="line"/>
      <point x="492" y="673" type="line" smooth="yes"/>
      <point x="492" y="688"/>
      <point x="480" y="700"/>
      <point x="465" y="700" type="curve" smooth="yes"/>
      <point x="424" y="700" type="line" smooth="yes"/>
      <point x="409" y="700"/>
      <point x="397" y="688"/>
      <point x="397" y="673" type="curve" smooth="yes"/>
      <point x="397" y="90" type="line"/>
      <point x="181" y="90" type="line"/>
      <point x="181" y="673" type="line" smooth="yes"/>
      <point x="181" y="688"/>
      <point x="169" y="700"/>
      <point x="154" y="700" type="curve" smooth="yes"/>
      <point x="113" y="700" type="line" smooth="yes"/>
      <point x="98" y="700"/>
      <point x="86" y="688"/>
      <point x="86" y="673" type="curve" smooth="yes"/>
      <point x="86" y="27" type="line" smooth="yes"/>
      <point x="86" y="12"/>
      <point x="98" y="0"/>
      <point x="113" y="0" type="curve" smooth="yes"/>
    </contour>
  </outline>
</glyph>
<glyph name="afii10047" format="1">
  <advance width="636"/>
  <unicode hex="042D"/>
  <outline>
    <contour>
      <point x="306" y="80" type="curve" smooth="yes"/>
      <point x="207" y="80"/>
      <point x="156" y="129"/>
      <point x="140" y="176" type="curve" smooth="yes"/>
      <point x="135" y="190"/>
      <point x="125" y="198"/>
      <point x="114" y="198" type="curve" name="hr01" smooth="yes"/>
      <point x="68" y="198" type="line" smooth="yes"/>
      <point x="56" y="198"/>
      <point x="45" y="188"/>
      <point x="46" y="176" type="curve" smooth="yes"/>
      <point x="49" y="109"/>
      <point x="126" y="-10"/>
      <point x="306" y="-10" type="curve" smooth="yes"/>
      <point x="468" y="-10"/>
      <point x="570" y="105"/>
      <point x="578" y="281" type="curve" smooth="yes"/>
      <point x="581" y="342"/>
      <point x="581" y="358"/>
      <point x="578" y="419" type="curve" smooth="yes"/>
      <point x="570" y="595"/>
      <point x="468" y="710"/>
      <point x="306" y="710" type="curve" smooth="yes"/>
      <point x="126" y="710"/>
      <point x="49" y="591"/>
      <point x="46" y="524" type="curve" smooth="yes"/>
      <point x="45" y="512"/>
      <point x="56" y="502"/>
      <point x="68" y="502" type="curve" smooth="yes"/>
      <point x="114" y="502" type="line" smooth="yes"/>
      <point x="125" y="502"/>
      <point x="135" y="510"/>
      <point x="140" y="524" type="curve" smooth="yes"/>
      <point x="156" y="571"/>
      <point x="207" y="620"/>
      <point x="306" y="620" type="curve" name="hr02" smooth="yes"/>
      <point x="440" y="620"/>
      <point x="484" y="504"/>
      <point x="484" y="397" type="curve"/>
      <point x="247" y="397" type="line" smooth="yes"/>
      <point x="232" y="397"/>
      <point x="220" y="385"/>
      <point x="220" y="370" type="curve" smooth="yes"/>
      <point x="220" y="334" type="line" smooth="yes"/>
      <point x="220" y="319"/>
      <point x="232" y="307"/>
      <point x="247" y="307" type="curve" smooth="yes"/>
      <point x="484" y="307" type="line"/>
      <point x="482" y="180"/>
      <point x="432" y="80"/>
    </contour>
  </outline>
</glyph>
<glyph name="afii10048" format="1">
  <advance width="949"/>
  <unicode hex="042E"/>
  <outline>
    <contour>
      <point x="337" y="439" type="curve"/>
      <point x="336" y="426"/>
      <point x="336" y="412"/>
      <point x="336" y="399" type="curve"/>
      <point x="176" y="399" type="line"/>
      <point x="176" y="673" type="line" smooth="yes"/>
      <point x="176" y="688"/>
      <point x="164" y="700"/>
      <point x="149" y="700" type="curve" smooth="yes"/>
      <point x="113" y="700" type="line" smooth="yes"/>
      <point x="98" y="700"/>
      <point x="86" y="688"/>
      <point x="86" y="673" type="curve" smooth="yes"/>
      <point x="86" y="27" type="line" smooth="yes"/>
      <point x="86" y="12"/>
      <point x="98" y="0"/>
      <point x="113" y="0" type="curve" smooth="yes"/>
      <point x="149" y="0" type="line" smooth="yes"/>
      <point x="164" y="0"/>
      <point x="176" y="12"/>
      <point x="176" y="27" type="curve" smooth="yes"/>
      <point x="176" y="309" type="line"/>
      <point x="335" y="309" type="line"/>
      <point x="335" y="292"/>
      <point x="336" y="277"/>
      <point x="337" y="261" type="curve" smooth="yes"/>
      <point x="342" y="111"/>
      <point x="437" y="-10"/>
      <point x="613" y="-10" type="curve" name="hr01" smooth="yes"/>
      <point x="789" y="-10"/>
      <point x="884" y="111"/>
      <point x="889" y="261" type="curve" smooth="yes"/>
      <point x="891" y="321"/>
      <point x="891" y="379"/>
      <point x="889" y="439" type="curve"/>
      <point x="886" y="589"/>
      <point x="789" y="710"/>
      <point x="613" y="710" type="curve" smooth="yes"/>
      <point x="437" y="710"/>
      <point x="340" y="589"/>
    </contour>
    <contour>
      <point x="794" y="434" type="curve" smooth="yes"/>
      <point x="796" y="374"/>
      <point x="796" y="326"/>
      <point x="794" y="266" type="curve" smooth="yes"/>
      <point x="790" y="140"/>
      <point x="716" y="80"/>
      <point x="613" y="80" type="curve" smooth="yes"/>
      <point x="510" y="80"/>
      <point x="436" y="140"/>
      <point x="432" y="266" type="curve" smooth="yes"/>
      <point x="430" y="326"/>
      <point x="430" y="374"/>
      <point x="432" y="434" type="curve" smooth="yes"/>
      <point x="436" y="560"/>
      <point x="510" y="620"/>
      <point x="613" y="620" type="curve" smooth="yes"/>
      <point x="716" y="620"/>
      <point x="790" y="560"/>
    </contour>
  </outline>
</glyph>
<glyph name="afii10066" format="1">
  <advance width="554"/>
  <unicode hex="0431"/>
  <outline>
    <contour>
      <point x="385" y="703" type="curve" name="hr00" smooth="yes"/>
      <point x="385" y="718"/>
      <point x="373" y="730"/>
      <point x="358" y="730" type="curve"/>
      <point x="321" y="730" type="line"/>
      <point x="306" y="730"/>
      <point x="294" y="718"/>
      <point x="294" y="703" type="curve" smooth="yes"/>
      <point x="294" y="591"/>
      <point x="49" y="539"/>
      <point x="49" y="230" type="curve" smooth="yes"/>
      <point x="49" y="88"/>
      <point x="145" y="-10"/>
      <point x="278" y="-10" type="curve" smooth="yes"/>
      <point x="411" y="-10"/>
      <point x="507" y="88"/>
      <point x="507" y="230" type="curve" smooth="yes"/>
      <point x="507" y="382"/>
      <point x="411" y="470"/>
      <point x="278" y="470" type="curve" smooth="yes"/>
      <point x="259" y="470"/>
      <point x="240" y="468"/>
      <point x="223" y="464" type="curve"/>
      <point x="294" y="554"/>
      <point x="385" y="610"/>
    </contour>
    <contour>
      <point x="278" y="384" type="curve" smooth="yes"/>
      <point x="371" y="384"/>
      <point x="416" y="321"/>
      <point x="416" y="230" type="curve" smooth="yes"/>
      <point x="416" y="139"/>
      <point x="371" y="76"/>
      <point x="278" y="76" type="curve" smooth="yes"/>
      <point x="185" y="76"/>
      <point x="140" y="139"/>
      <point x="140" y="230" type="curve" smooth="yes"/>
      <point x="140" y="321"/>
      <point x="185" y="384"/>
    </contour>
  </outline>
</glyph>
<glyph name="afii10068" format="1">
  <advance width="496"/>
  <unicode hex="0433"/>
  <outline>
    <contour>
      <point x="102" y="520" type="line" name="hr00" smooth="yes"/>
      <point x="87" y="520"/>
      <point x="75" y="508"/>
      <point x="75" y="493" type="curve" smooth="yes"/>
      <point x="75" y="27" type="line" smooth="yes"/>
      <point x="75" y="12"/>
      <point x="87" y="0"/>
      <point x="102" y="0" type="curve" smooth="yes"/>
      <point x="139" y="0" type="line" smooth="yes"/>
      <point x="154" y="0"/>
      <point x="166" y="12"/>
      <point x="166" y="27" type="curve" smooth="yes"/>
      <point x="166" y="434" type="line"/>
      <point x="457" y="434" type="line" smooth="yes"/>
      <point x="472" y="434"/>
      <point x="484" y="446"/>
      <point x="484" y="461" type="curve" smooth="yes"/>
      <point x="484" y="493" type="line" smooth="yes"/>
      <point x="484" y="508"/>
      <point x="472" y="520"/>
      <point x="457" y="520" type="curve" smooth="yes"/>
    </contour>
  </outline>
</glyph>
<glyph name="afii10073" format="1">
  <advance width="513"/>
  <unicode hex="0437"/>
  <outline>
    <contour>
      <point x="131" y="124" type="curve" smooth="yes"/>
      <point x="120" y="145"/>
      <point x="113" y="151"/>
      <point x="98" y="151" type="curve"/>
      <point x="68" y="151" type="line"/>
      <point x="53" y="151"/>
      <point x="40" y="139"/>
      <point x="41" y="124" type="curve" smooth="yes"/>
      <point x="45" y="54"/>
      <point x="111" y="-10"/>
      <point x="251" y="-10" type="curve" smooth="yes"/>
      <point x="367" y="-10"/>
      <point x="461" y="30"/>
      <point x="461" y="147" type="curve" smooth="yes"/>
      <point x="461" y="202"/>
      <point x="439" y="240"/>
      <point x="405" y="265" type="curve"/>
      <point x="434" y="291"/>
      <point x="452" y="327"/>
      <point x="452" y="374" type="curve" smooth="yes"/>
      <point x="452" y="480"/>
      <point x="362" y="530"/>
      <point x="251" y="530" type="curve" smooth="yes"/>
      <point x="123" y="530"/>
      <point x="54" y="459"/>
      <point x="51" y="386" type="curve" smooth="yes"/>
      <point x="50" y="371"/>
      <point x="63" y="359"/>
      <point x="78" y="359" type="curve"/>
      <point x="108" y="359" type="line"/>
      <point x="123" y="359"/>
      <point x="134" y="371"/>
      <point x="141" y="386" type="curve" smooth="yes"/>
      <point x="161" y="427"/>
      <point x="191" y="444"/>
      <point x="251" y="444" type="curve" name="hr01" smooth="yes"/>
      <point x="312" y="444"/>
      <point x="361" y="423"/>
      <point x="361" y="374" type="curve" smooth="yes"/>
      <point x="361" y="327"/>
      <point x="316" y="304"/>
      <point x="260" y="304" type="curve"/>
      <point x="181" y="304" type="line"/>
      <point x="166" y="304"/>
      <point x="154" y="292"/>
      <point x="154" y="277" type="curve"/>
      <point x="154" y="245" type="line"/>
      <point x="154" y="230"/>
      <point x="166" y="218"/>
      <point x="181" y="218" type="curve"/>
      <point x="259" y="218" type="line"/>
      <point x="321" y="218"/>
      <point x="370" y="198"/>
      <point x="370" y="147" type="curve" smooth="yes"/>
      <point x="370" y="93"/>
      <point x="317" y="76"/>
      <point x="251" y="76" type="curve" smooth="yes"/>
      <point x="198" y="76"/>
      <point x="153" y="81"/>
    </contour>
  </outline>
</glyph>
<glyph name="afii10090" format="1">
  <advance width="767"/>
  <unicode hex="0448"/>
  <outline>
    <contour>
      <point x="102" y="520" type="line" name="hr00" smooth="yes"/>
      <point x="87" y="520"/>
      <point x="75" y="508"/>
      <point x="75" y="493" type="curve" smooth="yes"/>
      <point x="75" y="27" type="line" smooth="yes"/>
      <point x="75" y="12"/>
      <point x="87" y="0"/>
      <point x="102" y="0" type="curve" smooth="yes"/>
      <point x="665" y="0" type="line" smooth="yes"/>
      <point x="680" y="0"/>
      <point x="692" y="12"/>
      <point x="692" y="27" type="curve" smooth="yes"/>
      <point x="692" y="493" type="line" smooth="yes"/>
      <point x="692" y="508"/>
      <point x="680" y="520"/>
      <point x="665" y="520" type="curve" smooth="yes"/>
      <point x="628" y="520" type="line" smooth="yes"/>
      <point x="613" y="520"/>
      <point x="601" y="508"/>
      <point x="601" y="493" type="curve" smooth="yes"/>
      <point x="601" y="86" type="line"/>
      <point x="429" y="86" type="line"/>
      <point x="429" y="493" type="line" smooth="yes"/>
      <point x="429" y="508"/>
      <point x="417" y="520"/>
      <point x="402" y="520" type="curve" smooth="yes"/>
      <point x="365" y="520" type="line" smooth="yes"/>
      <point x="350" y="520"/>
      <point x="338" y="508"/>
      <point x="338" y="493" type="curve" smooth="yes"/>
      <point x="338" y="86" type="line"/>
      <point x="166" y="86" type="line"/>
      <point x="166" y="493" type="line" smooth="yes"/>
      <point x="166" y="508"/>
      <point x="154" y="520"/>
      <point x="139" y="520" type="curve" smooth="yes"/>
    </contour>
  </outline>
</glyph>
<glyph name="afii10093" format="1">
  <advance width="706"/>
  <unicode hex="044B"/>
  <outline>
    <contour>
      <point x="102" y="0" type="curve" name="hr00"/>
      <point x="274" y="0" type="line"/>
      <point x="402" y="0"/>
      <point x="490" y="78"/>
      <point x="490" y="196" type="curve" smooth="yes"/>
      <point x="490" y="314"/>
      <point x="402" y="392"/>
      <point x="274" y="392" type="curve"/>
      <point x="166" y="392" type="line"/>
      <point x="166" y="493" type="line"/>
      <point x="166" y="508"/>
      <point x="154" y="520"/>
      <point x="139" y="520" type="curve"/>
      <point x="102" y="520" type="line"/>
      <point x="87" y="520"/>
      <point x="75" y="508"/>
      <point x="75" y="493" type="curve"/>
      <point x="75" y="27" type="line"/>
      <point x="75" y="12"/>
      <point x="87" y="0"/>
    </contour>
    <contour>
      <point x="631" y="493" type="line"/>
      <point x="631" y="508"/>
      <point x="619" y="520"/>
      <point x="604" y="520" type="curve"/>
      <point x="567" y="520" type="line"/>
      <point x="552" y="520"/>
      <point x="540" y="508"/>
      <point x="540" y="493" type="curve"/>
      <point x="540" y="27" type="line"/>
      <point x="540" y="12"/>
      <point x="552" y="0"/>
      <point x="567" y="0" type="curve"/>
      <point x="604" y="0" type="line"/>
      <point x="619" y="0"/>
      <point x="631" y="12"/>
      <point x="631" y="27" type="curve"/>
    </contour>
    <contour>
      <point x="400" y="196" type="curve" smooth="yes"/>
      <point x="400" y="115"/>
      <point x="341" y="86"/>
      <point x="260" y="86" type="curve"/>
      <point x="166" y="86" type="line"/>
      <point x="166" y="306" type="line"/>
      <point x="260" y="306" type="line"/>
      <point x="341" y="306"/>
      <point x="400" y="277"/>
    </contour>
  </outline>
</glyph>
<glyph name="afii10094" format="1">
  <advance width="524"/>
  <unicode hex="044C"/>
  <outline>
    <contour>
      <point x="102" y="0" type="curve" name="hr00"/>
      <point x="274" y="0" type="line" smooth="yes"/>
      <point x="402" y="0"/>
      <point x="490" y="78"/>
      <point x="490" y="196" type="curve" smooth="yes"/>
      <point x="490" y="314"/>
      <point x="402" y="392"/>
      <point x="274" y="392" type="curve" smooth="yes"/>
      <point x="166" y="392" type="line"/>
      <point x="166" y="493" type="line" smooth="yes"/>
      <point x="166" y="508"/>
      <point x="154" y="520"/>
      <point x="139" y="520" type="curve" smooth="yes"/>
      <point x="102" y="520" type="line" smooth="yes"/>
      <point x="87" y="520"/>
      <point x="75" y="508"/>
      <point x="75" y="493" type="curve" smooth="yes"/>
      <point x="75" y="27" type="line" smooth="yes"/>
      <point x="75" y="12"/>
      <point x="87" y="0"/>
    </contour>
    <contour>
      <point x="400" y="196" type="curve" smooth="yes"/>
      <point x="400" y="115"/>
      <point x="341" y="86"/>
      <point x="260" y="86" type="curve" smooth="yes"/>
      <point x="166" y="86" type="line"/>
      <point x="166" y="306" type="line"/>
      <point x="260" y="306" type="line" smooth="yes"/>
      <point x="341" y="306"/>
      <point x="400" y="277"/>
    </contour>
  </outline>
</glyph>
<glyph name="afii10106" format="1">
  <advance width="833"/>
  <unicode hex="0459"/>
  <outline>
    <contour>
      <point x="133" y="493" type="curve"/>
      <point x="133" y="174" type="line"/>
      <point x="133" y="114"/>
      <point x="119" y="76"/>
      <point x="57" y="76" type="curve"/>
      <point x="45" y="76" type="line"/>
      <point x="30" y="76"/>
      <point x="18" y="64"/>
      <point x="18" y="49" type="curve" name="hr01"/>
      <point x="18" y="17" type="line"/>
      <point x="18" y="2"/>
      <point x="30" y="-10"/>
      <point x="45" y="-10" type="curve"/>
      <point x="57" y="-10" type="line"/>
      <point x="183" y="-10"/>
      <point x="224" y="64"/>
      <point x="224" y="173" type="curve"/>
      <point x="224" y="434" type="line"/>
      <point x="384" y="434" type="line"/>
      <point x="384" y="27" type="line"/>
      <point x="384" y="12"/>
      <point x="396" y="0"/>
      <point x="411" y="0" type="curve" name="hr02"/>
      <point x="583" y="0" type="line"/>
      <point x="711" y="0"/>
      <point x="799" y="78"/>
      <point x="799" y="196" type="curve" smooth="yes"/>
      <point x="799" y="314"/>
      <point x="711" y="392"/>
      <point x="583" y="392" type="curve"/>
      <point x="475" y="392" type="line"/>
      <point x="475" y="493" type="line"/>
      <point x="475" y="508"/>
      <point x="463" y="520"/>
      <point x="448" y="520" type="curve"/>
      <point x="160" y="520" type="line"/>
      <point x="145" y="520"/>
      <point x="133" y="508"/>
    </contour>
    <contour>
      <point x="709" y="196" type="curve" smooth="yes"/>
      <point x="709" y="115"/>
      <point x="650" y="86"/>
      <point x="569" y="86" type="curve"/>
      <point x="475" y="86" type="line"/>
      <point x="475" y="306" type="line"/>
      <point x="569" y="306" type="line"/>
      <point x="650" y="306"/>
      <point x="709" y="277"/>
    </contour>
  </outline>
</glyph>
<glyph name="segolhebrew" format="1">
  <advance width="0"/>
  <unicode hex="05B6"/>
  <outline>
    <contour>
      <point x="81" y="-152" type="line" smooth="yes"/>
      <point x="94" y="-152"/>
      <point x="103" y="-143"/>
      <point x="103" y="-130" type="curve" smooth="yes"/>
      <point x="103" y="-100" type="line" smooth="yes"/>
      <point x="103" y="-87"/>
      <point x="94" y="-78"/>
      <point x="81" y="-78" type="curve" smooth="yes"/>
      <point x="50" y="-78" type="line" smooth="yes"/>
      <point x="37" y="-78"/>
      <point x="28" y="-87"/>
      <point x="28" y="-100" type="curve" smooth="yes"/>
      <point x="28" y="-130" type="line" smooth="yes"/>
      <point x="28" y="-143"/>
      <point x="37" y="-152"/>
      <point x="50" y="-152" type="curve" smooth="yes"/>
    </contour>
    <contour>
      <point x="16" y="-255" type="line" smooth="yes"/>
      <point x="29" y="-255"/>
      <point x="38" y="-246"/>
      <point x="38" y="-233" type="curve" smooth="yes"/>
      <point x="38" y="-204" type="line" smooth="yes"/>
      <point x="38" y="-191"/>
      <point x="29" y="-182"/>
      <point x="16" y="-182" type="curve"/>
      <point x="-15" y="-182" type="line" smooth="yes"/>
      <point x="-28" y="-182"/>
      <point x="-37" y="-191"/>
      <point x="-37" y="-204" type="curve" smooth="yes"/>
      <point x="-37" y="-233" type="line" smooth="yes"/>
      <point x="-37" y="-246"/>
      <point x="-28" y="-255"/>
      <point x="-15" y="-255" type="curve" smooth="yes"/>
    </contour>
    <contour>
      <point x="-46" y="-152" type="line" smooth="yes"/>
      <point x="-33" y="-152"/>
      <point x="-24" y="-143"/>
      <point x="-24" y="-130" type="curve" smooth="yes"/>
      <point x="-24" y="-100" type="line" smooth="yes"/>
      <point x="-24" y="-87"/>
      <point x="-33" y="-78"/>
      <point x="-46" y="-78" type="curve" smooth="yes"/>
      <point x="-77" y="-78" type="line" smooth="yes"/>
      <point x="-90" y="-78"/>
      <point x="-99" y="-87"/>
      <point x="-99" y="-100" type="curve" smooth="yes"/>
      <point x="-99" y="-130" type="line" smooth="yes"/>
      <point x="-99" y="-143"/>
      <point x="-90" y="-152"/>
      <point x="-77" y="-152" type="curve" smooth="yes"/>
    </contour>
    <contour>
      <point x="1" y="0" type="move" name="_bottom"/>
    </contour>
  </outline>
</glyph>
<glyph name="maqafhebrew" format="1">
  <advance width="377"/>
  <unicode hex="05BE"/>
  <outline>
    <contour>
      <point x="295" y="493" type="line" smooth="yes"/>
      <point x="308" y="493"/>
      <point x="317" y="502"/>
      <point x="317" y="515" type="curve" smooth="yes"/>
      <point x="317" y="549" type="line" smooth="yes"/>
      <point x="317" y="562"/>
      <point x="308" y="571"/>
      <point x="295" y="571" type="curve" smooth="yes"/>
      <point x="82" y="571" type="line" smooth="yes"/>
      <point x="69" y="571"/>
      <point x="60" y="562"/>
      <point x="60" y="549" type="curve" smooth="yes"/>
      <point x="60" y="515" type="line" smooth="yes"/>
      <point x="60" y="502"/>
      <point x="69" y="493"/>
      <point x="82" y="493" type="curve" smooth="yes"/>
    </contour>
  </outline>
</glyph>
<glyph name="sindothebrew" format="1">
  <advance width="0"/>
  <unicode hex="05C2"/>
  <outline>
    <contour>
      <point x="53" y="526" type="line" smooth="yes"/>
      <point x="66" y="526"/>
      <point x="75" y="535"/>
      <point x="75" y="548" type="curve" smooth="yes"/>
      <point x="75" y="578" type="line" smooth="yes"/>
      <point x="75" y="591"/>
      <point x="66" y="600"/>
      <point x="53" y="600" type="curve" smooth="yes"/>
      <point x="23" y="600" type="line" smooth="yes"/>
      <point x="10" y="600"/>
      <point x="1" y="591"/>
      <point x="1" y="578" type="curve" smooth="yes"/>
      <point x="1" y="548" type="line" smooth="yes"/>
      <point x="1" y="535"/>
      <point x="10" y="526"/>
      <point x="23" y="526" type="curve" smooth="yes"/>
    </contour>
    <contour>
      <point x="-70" y="415" type="move" name="_topleft"/>
    </contour>
  </outline>
</glyph>
<glyph name="gimelhebrew" format="1">
  <advance width="444"/>
  <unicode hex="05D2"/>
  <outline>
    <contour>
      <point x="384" y="0" type="line" smooth="yes"/>
      <point x="398" y="0"/>
      <point x="409" y="10"/>
      <point x="407" y="23" type="curve" smooth="yes"/>
      <point x="346" y="335" type="line" smooth="yes"/>
      <point x="314" y="493"/>
      <point x="266" y="573"/>
      <point x="135" y="573" type="curve" smooth="yes"/>
      <point x="98" y="573" type="line" smooth="yes"/>
      <point x="85" y="573"/>
      <point x="75" y="563"/>
      <point x="75" y="550" type="curve" smooth="yes"/>
      <point x="75" y="516" type="line" smooth="yes"/>
      <point x="75" y="503"/>
      <point x="85" y="494"/>
      <point x="98" y="494" type="curve" smooth="yes"/>
      <point x="134" y="494" type="line" smooth="yes"/>
      <point x="212" y="494"/>
      <point x="235" y="437"/>
      <point x="257" y="330" type="curve" smooth="yes"/>
      <point x="318" y="23" type="line"/>
      <point x="320" y="10"/>
      <point x="327" y="0"/>
      <point x="340" y="0" type="curve" smooth="yes"/>
    </contour>
    <contour>
      <point x="277" y="95"/>
      <point x="337" y="189"/>
      <point x="339" y="276" type="curve"/>
      <point x="281" y="268" type="line"/>
      <point x="281" y="227"/>
      <point x="225" y="155"/>
      <point x="175" y="124" type="curve" smooth="yes"/>
      <point x="142" y="103"/>
      <point x="84" y="84"/>
      <point x="70" y="79" type="curve" smooth="yes"/>
      <point x="55" y="73"/>
      <point x="49" y="64"/>
      <point x="49" y="54" type="curve" smooth="yes"/>
      <point x="49" y="7" type="line" smooth="yes"/>
      <point x="49" y="-7"/>
      <point x="60" y="-10"/>
      <point x="73" y="-8" type="curve" smooth="yes"/>
      <point x="120" y="1"/>
      <point x="160" y="17"/>
      <point x="210" y="51" type="curve" smooth="yes"/>
    </contour>
    <contour>
      <point x="234" y="0" type="move" name="bottom"/>
    </contour>
    <contour>
      <point x="262" y="520" type="move" name="top"/>
    </contour>
    <contour>
      <point x="24" y="0" type="move" name="bottomleft"/>
    </contour>
    <contour>
      <point x="24" y="520" type="move" name="topleft"/>
    </contour>
    <contour>
      <point x="152" y="260" type="move" name="center"/>
    </contour>
  </outline>
</glyph>
<glyph name="dalethebrew" format="1">
  <advance width="557"/>
  <unicode hex="05D3"/>
  <outline>
    <contour>
      <point x="374" y="0" type="line" smooth="yes"/>
      <point x="387" y="0"/>
      <point x="398" y="9"/>
      <point x="398" y="22" type="curve"/>
      <point x="398" y="375" type="line" smooth="yes"/>
      <point x="398" y="449"/>
      <point x="420" y="506"/>
      <point x="454" y="506" type="curve"/>
      <point x="358" y="506" type="line"/>
      <point x="331" y="506"/>
      <point x="310" y="460"/>
      <point x="310" y="381" type="curve" smooth="yes"/>
      <point x="310" y="22" type="line" smooth="yes"/>
      <point x="310" y="9"/>
      <point x="319" y="0"/>
      <point x="332" y="0" type="curve" smooth="yes"/>
    </contour>
    <contour>
      <point x="488" y="494" type="line" smooth="yes"/>
      <point x="502" y="494"/>
      <point x="511" y="503"/>
      <point x="511" y="516" type="curve" smooth="yes"/>
      <point x="511" y="548" type="line" smooth="yes"/>
      <point x="511" y="562"/>
      <point x="501" y="571"/>
      <point x="488" y="571" type="curve" smooth="yes"/>
      <point x="60" y="571" type="line" smooth="yes"/>
      <point x="47" y="571"/>
      <point x="37" y="562"/>
      <point x="37" y="548" type="curve" smooth="yes"/>
      <point x="37" y="516" type="line" smooth="yes"/>
      <point x="37" y="503"/>
      <point x="47" y="494"/>
      <point x="60" y="494" type="curve" smooth="yes"/>
    </contour>
    <contour>
      <point x="354" y="0" type="move" name="bottom"/>
    </contour>
    <contour>
      <point x="278" y="520" type="move" name="top"/>
    </contour>
    <contour>
      <point x="44" y="0" type="move" name="bottomleft"/>
    </contour>
    <contour>
      <point x="44" y="520" type="move" name="topleft"/>
    </contour>
    <contour>
      <point x="186" y="260" type="move" name="center"/>
    </contour>
  </outline>
</glyph>
<glyph name="hehebrew" format="1">
  <advance width="618"/>
  <unicode hex="05D4"/>
  <outline>
    <contour>
      <point x="524" y="0" type="line" smooth="yes"/>
      <point x="537" y="0"/>
      <point x="546" y="10"/>
      <point x="546" y="23" type="curve" smooth="yes"/>
      <point x="546" y="325" type="line" smooth="yes"/>
      <point x="546" y="485"/>
      <point x="464" y="571"/>
      <point x="292" y="571" type="curve" smooth="yes"/>
      <point x="101" y="571" type="line" smooth="yes"/>
      <point x="88" y="571"/>
      <point x="78" y="562"/>
      <point x="78" y="548" type="curve" smooth="yes"/>
      <point x="78" y="516" type="line" smooth="yes"/>
      <point x="78" y="503"/>
      <point x="88" y="494"/>
      <point x="101" y="494" type="curve" smooth="yes"/>
      <point x="287" y="494" type="line" smooth="yes"/>
      <point x="408" y="494"/>
      <point x="458" y="430"/>
      <point x="458" y="322" type="curve" smooth="yes"/>
      <point x="458" y="23" type="line" smooth="yes"/>
      <point x="458" y="9"/>
      <point x="468" y="0"/>
      <point x="481" y="0" type="curve" smooth="yes"/>
    </contour>
    <contour>
      <point x="143" y="0" type="line" smooth="yes"/>
      <point x="157" y="0"/>
      <point x="166" y="10"/>
      <point x="166" y="23" type="curve"/>
      <point x="166" y="359" type="line" smooth="yes"/>
      <point x="166" y="372"/>
      <point x="157" y="382"/>
      <point x="143" y="382" type="curve" smooth="yes"/>
      <point x="101" y="382" type="line" smooth="yes"/>
      <point x="88" y="382"/>
      <point x="78" y="372"/>
      <point x="78" y="359" type="curve" smooth="yes"/>
      <point x="78" y="23" type="line" smooth="yes"/>
      <point x="78" y="10"/>
      <point x="88" y="0"/>
      <point x="101" y="0" type="curve" smooth="yes"/>
    </contour>
    <contour>
      <point x="309" y="0" type="move" name="bottom"/>
    </contour>
    <contour>
      <point x="309" y="520" type="move" name="top"/>
    </contour>
    <contour>
      <point x="20" y="0" type="move" name="bottomleft"/>
    </contour>
    <contour>
      <point x="20" y="520" type="move" name="topleft"/>
    </contour>
    <contour>
      <point x="309" y="260" type="move" name="center"/>
    </contour>
  </outline>
</glyph>
<glyph name="zayinhebrew" format="1">
  <advance width="394"/>
  <unicode hex="05D6"/>
  <outline>
    <contour>
      <point x="203" y="0" type="line" smooth="yes"/>
      <point x="216" y="0"/>
      <point x="227" y="9"/>
      <point x="227" y="22" type="curve"/>
      <point x="227" y="375" type="line" smooth="yes"/>
      <point x="227" y="449"/>
      <point x="249" y="506"/>
      <point x="283" y="506" type="curve"/>
      <point x="187" y="506" type="line"/>
      <point x="160" y="506"/>
      <point x="139" y="460"/>
      <point x="139" y="381" type="curve" smooth="yes"/>
      <point x="139" y="22" type="line" smooth="yes"/>
      <point x="139" y="9"/>
      <point x="148" y="0"/>
      <point x="161" y="0" type="curve" smooth="yes"/>
    </contour>
    <contour>
      <point x="317" y="494" type="line" smooth="yes"/>
      <point x="330" y="494"/>
      <point x="340" y="503"/>
      <point x="340" y="516" type="curve" smooth="yes"/>
      <point x="340" y="548" type="line" smooth="yes"/>
      <point x="340" y="562"/>
      <point x="330" y="571"/>
      <point x="317" y="571" type="curve" smooth="yes"/>
      <point x="77" y="571" type="line" smooth="yes"/>
      <point x="64" y="571"/>
      <point x="54" y="562"/>
      <point x="54" y="548" type="curve" smooth="yes"/>
      <point x="54" y="516" type="line" smooth="yes"/>
      <point x="54" y="503"/>
      <point x="64" y="494"/>
      <point x="77" y="494" type="curve" smooth="yes"/>
    </contour>
    <contour>
      <point x="182" y="0" type="move" name="bottom"/>
    </contour>
    <contour>
      <point x="206" y="520" type="move" name="top"/>
    </contour>
    <contour>
      <point x="61" y="0" type="move" name="bottomleft"/>
    </contour>
    <contour>
      <point x="61" y="520" type="move" name="topleft"/>
    </contour>
    <contour>
      <point x="66" y="260" type="move" name="center"/>
    </contour>
  </outline>
</glyph>
<glyph name="hethebrew" format="1">
  <advance width="620"/>
  <unicode hex="05D7"/>
  <outline>
    <contour>
      <point x="143" y="0" type="line" smooth="yes"/>
      <point x="157" y="0"/>
      <point x="166" y="10"/>
      <point x="166" y="23" type="curve" smooth="yes"/>
      <point x="166" y="494" type="line"/>
      <point x="289" y="494" type="line" smooth="yes"/>
      <point x="409" y="494"/>
      <point x="460" y="430"/>
      <point x="460" y="322" type="curve" smooth="yes"/>
      <point x="460" y="23" type="line" smooth="yes"/>
      <point x="460" y="9"/>
      <point x="470" y="0"/>
      <point x="483" y="0" type="curve" smooth="yes"/>
      <point x="525" y="0" type="line" smooth="yes"/>
      <point x="538" y="0"/>
      <point x="548" y="10"/>
      <point x="548" y="23" type="curve" smooth="yes"/>
      <point x="548" y="325" type="line" smooth="yes"/>
      <point x="548" y="487"/>
      <point x="467" y="571"/>
      <point x="294" y="571" type="curve" smooth="yes"/>
      <point x="101" y="571" type="line" smooth="yes"/>
      <point x="88" y="571"/>
      <point x="78" y="562"/>
      <point x="78" y="548" type="curve" smooth="yes"/>
      <point x="78" y="23" type="line" smooth="yes"/>
      <point x="78" y="10"/>
      <point x="88" y="0"/>
      <point x="101" y="0" type="curve" smooth="yes"/>
    </contour>
    <contour>
      <point x="310" y="0" type="move" name="bottom"/>
    </contour>
    <contour>
      <point x="310" y="520" type="move" name="top"/>
    </contour>
    <contour>
      <point x="20" y="0" type="move" name="bottomleft"/>
    </contour>
    <contour>
      <point x="20" y="520" type="move" name="topleft"/>
    </contour>
    <contour>
      <point x="310" y="260" type="move" name="center"/>
    </contour>
  </outline>
</glyph>
<glyph name="tethebrew" format="1">
  <advance width="631"/>
  <unicode hex="05D8"/>
  <outline>
    <contour>
      <point x="503" y="-10"/>
      <point x="570" y="73"/>
      <point x="575" y="227" type="curve" smooth="yes"/>
      <point x="576" y="247"/>
      <point x="576" y="325"/>
      <point x="575" y="345" type="curve" smooth="yes"/>
      <point x="572" y="504"/>
      <point x="502" y="576"/>
      <point x="374" y="576" type="curve" smooth="yes"/>
      <point x="324" y="576"/>
      <point x="296" y="566"/>
      <point x="270" y="549" type="curve" smooth="yes"/>
      <point x="258" y="541"/>
      <point x="258" y="531"/>
      <point x="258" y="518" type="curve" smooth="yes"/>
      <point x="258" y="489" type="line" smooth="yes"/>
      <point x="258" y="475"/>
      <point x="274" y="467"/>
      <point x="286" y="474" type="curve" smooth="yes"/>
      <point x="307" y="488"/>
      <point x="341" y="497"/>
      <point x="363" y="497" type="curve" smooth="yes"/>
      <point x="437" y="497"/>
      <point x="486" y="448"/>
      <point x="488" y="335" type="curve" smooth="yes"/>
      <point x="488" y="315"/>
      <point x="489" y="252"/>
      <point x="488" y="232" type="curve" smooth="yes"/>
      <point x="486" y="124"/>
      <point x="436" y="69"/>
      <point x="324" y="69" type="curve" smooth="yes"/>
      <point x="212" y="69"/>
      <point x="158" y="131"/>
      <point x="158" y="240" type="curve" smooth="yes"/>
      <point x="158" y="548" type="line" smooth="yes"/>
      <point x="158" y="562"/>
      <point x="148" y="571"/>
      <point x="135" y="571" type="curve" smooth="yes"/>
      <point x="96" y="571" type="line" smooth="yes"/>
      <point x="83" y="571"/>
      <point x="73" y="562"/>
      <point x="73" y="548" type="curve" smooth="yes"/>
      <point x="73" y="235" type="line" smooth="yes"/>
      <point x="73" y="80"/>
      <point x="146" y="-10"/>
      <point x="324" y="-10" type="curve" smooth="yes"/>
    </contour>
    <contour>
      <point x="324" y="0" type="move" name="bottom"/>
    </contour>
    <contour>
      <point x="324" y="520" type="move" name="top"/>
    </contour>
    <contour>
      <point x="20" y="0" type="move" name="bottomleft"/>
    </contour>
    <contour>
      <point x="20" y="520" type="move" name="topleft"/>
    </contour>
    <contour>
      <point x="323" y="260" type="move" name="center"/>
    </contour>
  </outline>
</glyph>
<glyph name="finalkafhebrew" format="1">
  <advance width="566"/>
  <unicode hex="05DA"/>
  <outline>
    <contour>
      <point x="405" y="-101" type="line" smooth="yes"/>
      <point x="405" y="-115"/>
      <point x="415" y="-124"/>
      <point x="428" y="-124" type="curve" smooth="yes"/>
      <point x="471" y="-124" type="line" smooth="yes"/>
      <point x="484" y="-124"/>
      <point x="493" y="-115"/>
      <point x="493" y="-101" type="curve" smooth="yes"/>
      <point x="493" y="327" type="line" smooth="yes"/>
      <point x="493" y="493"/>
      <point x="411" y="571"/>
      <point x="238" y="571" type="curve" smooth="yes"/>
      <point x="87" y="571" type="line"/>
      <point x="74" y="571"/>
      <point x="64" y="562"/>
      <point x="64" y="548" type="curve" smooth="yes"/>
      <point x="64" y="516" type="line" smooth="yes"/>
      <point x="64" y="503"/>
      <point x="74" y="494"/>
      <point x="87" y="494" type="curve" smooth="yes"/>
      <point x="233" y="494" type="line" smooth="yes"/>
      <point x="354" y="494"/>
      <point x="405" y="430"/>
      <point x="405" y="322" type="curve" smooth="yes"/>
    </contour>
    <contour>
      <point x="224" y="241" type="move" name="bottom"/>
    </contour>
    <contour>
      <point x="304" y="520" type="move" name="top"/>
    </contour>
    <contour>
      <point x="71" y="0" type="move" name="bottomleft"/>
    </contour>
    <contour>
      <point x="71" y="520" type="move" name="topleft"/>
    </contour>
    <contour>
      <point x="284" y="260" type="move" name="center"/>
    </contour>
  </outline>
</glyph>
<glyph name="gereshhebrew" format="1">
  <advance width="227"/>
  <unicode hex="05F3"/>
  <outline>
    <contour>
      <point x="104" y="411" type="line" smooth="yes"/>
      <point x="121" y="411"/>
      <point x="127" y="420"/>
      <point x="133" y="433" type="curve" smooth="yes"/>
      <point x="185" y="568" type="line" smooth="yes"/>
      <point x="187" y="574"/>
      <point x="188" y="580"/>
      <point x="188" y="584" type="curve" smooth="yes"/>
      <point x="188" y="593"/>
      <point x="181" y="601"/>
      <point x="172" y="601" type="curve" smooth="yes"/>
      <point x="108" y="601" type="line" smooth="yes"/>
      <point x="90" y="601"/>
      <point x="82" y="588"/>
      <point x="80" y="572" type="curve"/>
      <point x="58" y="432" type="line"/>
      <point x="56" y="420"/>
      <point x="62" y="411"/>
      <point x="73" y="411" type="curve" smooth="yes"/>
    </contour>
  </outline>
</glyph>
<glyph name="dagger" format="1">
  <advance width="429"/>
  <unicode hex="2020"/>
  <outline>
    <contour>
      <point x="372" y="438" type="line" name="hr00" smooth="yes"/>
      <point x="387" y="438"/>
      <point x="399" y="450"/>
      <point x="399" y="465" type="curve" smooth="yes"/>
      <point x="399" y="497" type="line" smooth="yes"/>
      <point x="399" y="512"/>
      <point x="387" y="524"/>
      <point x="372" y="524" type="curve" smooth="yes"/>
      <point x="260" y="524" type="line"/>
      <point x="260" y="673" type="line" smooth="yes"/>
      <point x="260" y="688"/>
      <point x="248" y="700"/>
      <point x="233" y="700" type="curve" smooth="yes"/>
      <point x="196" y="700" type="line" smooth="yes"/>
      <point x="181" y="700"/>
      <point x="169" y="688"/>
      <point x="169" y="673" type="curve" smooth="yes"/>
      <point x="169" y="524" type="line"/>
      <point x="57" y="524" type="line" smooth="yes"/>
      <point x="42" y="524"/>
      <point x="30" y="512"/>
      <point x="30" y="497" type="curve" smooth="yes"/>
      <point x="30" y="465" type="line" smooth="yes"/>
      <point x="30" y="450"/>
      <point x="42" y="438"/>
      <point x="57" y="438" type="curve" smooth="yes"/>
      <point x="169" y="438" type="line"/>
      <point x="169" y="27" type="line" smooth="yes"/>
      <point x="169" y="12"/>
      <point x="181" y="0"/>
      <point x="196" y="0" type="curve" smooth="yes"/>
      <point x="233" y="0" type="line" smooth="yes"/>
      <point x="248" y="0"/>
      <point x="260" y="12"/>
      <point x="260" y="27" type="curve" smooth="yes"/>
      <point x="260" y="438" type="line"/>
    </contour>
  </outline>
</glyph>
<glyph name="perthousand" format="1">
  <advance width="1125"/>
  <unicode hex="2030"/>
  <outline>
    <contour>
      <point x="941" y="355" type="curve" smooth="yes"/>
      <point x="847" y="355"/>
      <point x="799" y="296"/>
      <point x="795" y="216" type="curve" smooth="yes"/>
      <point x="793" y="179"/>
      <point x="793" y="167"/>
      <point x="795" y="133" type="curve" smooth="yes"/>
      <point x="799" y="53"/>
      <point x="847" y="-5"/>
      <point x="941" y="-5" type="curve" smooth="yes"/>
      <point x="1035" y="-5"/>
      <point x="1083" y="53"/>
      <point x="1087" y="133" type="curve" smooth="yes"/>
      <point x="1089" y="167"/>
      <point x="1089" y="179"/>
      <point x="1087" y="216" type="curve" smooth="yes"/>
      <point x="1083" y="296"/>
      <point x="1035" y="355"/>
    </contour>
    <contour>
      <point x="1010" y="213" type="curve" smooth="yes"/>
      <point x="1012" y="178"/>
      <point x="1012" y="173"/>
      <point x="1010" y="136" type="curve" smooth="yes"/>
      <point x="1008" y="99"/>
      <point x="988" y="67"/>
      <point x="941" y="67" type="curve" smooth="yes"/>
      <point x="894" y="67"/>
      <point x="874" y="99"/>
      <point x="872" y="136" type="curve" smooth="yes"/>
      <point x="870" y="173"/>
      <point x="870" y="178"/>
      <point x="872" y="213" type="curve" smooth="yes"/>
      <point x="874" y="250"/>
      <point x="894" y="283"/>
      <point x="941" y="283" type="curve" smooth="yes"/>
      <point x="988" y="283"/>
      <point x="1008" y="250"/>
    </contour>
    <contour>
      <point x="191" y="705" type="curve" smooth="yes"/>
      <point x="97" y="705"/>
      <point x="49" y="646"/>
      <point x="45" y="566" type="curve" smooth="yes"/>
      <point x="43" y="529"/>
      <point x="43" y="517"/>
      <point x="45" y="483" type="curve" smooth="yes"/>
      <point x="49" y="403"/>
      <point x="97" y="345"/>
      <point x="191" y="345" type="curve" name="hr01" smooth="yes"/>
      <point x="285" y="345"/>
      <point x="333" y="403"/>
      <point x="337" y="483" type="curve" smooth="yes"/>
      <point x="339" y="517"/>
      <point x="339" y="529"/>
      <point x="337" y="566" type="curve" smooth="yes"/>
      <point x="333" y="646"/>
      <point x="285" y="705"/>
    </contour>
    <contour>
      <point x="260" y="563" type="curve" smooth="yes"/>
      <point x="262" y="528"/>
      <point x="262" y="523"/>
      <point x="260" y="486" type="curve" smooth="yes"/>
      <point x="258" y="449"/>
      <point x="238" y="417"/>
      <point x="191" y="417" type="curve" smooth="yes"/>
      <point x="144" y="417"/>
      <point x="124" y="449"/>
      <point x="122" y="486" type="curve" smooth="yes"/>
      <point x="120" y="523"/>
      <point x="120" y="528"/>
      <point x="122" y="563" type="curve" smooth="yes"/>
      <point x="124" y="600"/>
      <point x="144" y="633"/>
      <point x="191" y="633" type="curve" smooth="yes"/>
      <point x="238" y="633"/>
      <point x="258" y="600"/>
    </contour>
    <contour>
      <point x="606" y="355" type="curve" name="hr02" smooth="yes"/>
      <point x="512" y="355"/>
      <point x="464" y="296"/>
      <point x="460" y="216" type="curve" smooth="yes"/>
      <point x="458" y="179"/>
      <point x="458" y="167"/>
      <point x="460" y="133" type="curve" smooth="yes"/>
      <point x="464" y="53"/>
      <point x="512" y="-5"/>
      <point x="606" y="-5" type="curve" smooth="yes"/>
      <point x="700" y="-5"/>
      <point x="748" y="53"/>
      <point x="752" y="133" type="curve" smooth="yes"/>
      <point x="754" y="167"/>
      <point x="754" y="179"/>
      <point x="752" y="216" type="curve" smooth="yes"/>
      <point x="748" y="296"/>
      <point x="700" y="355"/>
    </contour>
    <contour>
      <point x="675" y="213" type="curve" smooth="yes"/>
      <point x="677" y="178"/>
      <point x="677" y="173"/>
      <point x="675" y="136" type="curve" smooth="yes"/>
      <point x="673" y="99"/>
      <point x="653" y="67"/>
      <point x="606" y="67" type="curve" smooth="yes"/>
      <point x="559" y="67"/>
      <point x="539" y="99"/>
      <point x="537" y="136" type="curve" smooth="yes"/>
      <point x="535" y="173"/>
      <point x="535" y="178"/>
      <point x="537" y="213" type="curve" smooth="yes"/>
      <point x="539" y="250"/>
      <point x="559" y="283"/>
      <point x="606" y="283" type="curve" smooth="yes"/>
      <point x="653" y="283"/>
      <point x="673" y="250"/>
    </contour>
    <contour>
      <point x="101" y="31" type="line" smooth="yes"/>
      <point x="98" y="27"/>
      <point x="97" y="22"/>
      <point x="97" y="20" type="curve" smooth="yes"/>
      <point x="97" y="8"/>
      <point x="107" y="0"/>
      <point x="121" y="0" type="curve" name="hr03" smooth="yes"/>
      <point x="159" y="0" type="line" smooth="yes"/>
      <point x="178" y="0"/>
      <point x="186" y="7"/>
      <point x="195" y="19" type="curve" smooth="yes"/>
      <point x="689" y="669" type="line" smooth="yes"/>
      <point x="692" y="673"/>
      <point x="693" y="678"/>
      <point x="693" y="680" type="curve" smooth="yes"/>
      <point x="693" y="692"/>
      <point x="683" y="700"/>
      <point x="669" y="700" type="curve" smooth="yes"/>
      <point x="631" y="700" type="line" smooth="yes"/>
      <point x="612" y="700"/>
      <point x="604" y="693"/>
      <point x="595" y="681" type="curve" smooth="yes"/>
    </contour>
  </outline>
</glyph>
<glyph name="guilsinglright" format="1">
  <advance width="347"/>
  <unicode hex="203A"/>
  <outline>
    <contour>
      <point x="302" y="357" type="line" name="hr00" smooth="yes"/>
      <point x="302" y="369"/>
      <point x="296" y="378"/>
      <point x="288" y="385" type="curve" smooth="yes"/>
      <point x="91" y="576" type="line" smooth="yes"/>
      <point x="85" y="581"/>
      <point x="78" y="581"/>
      <point x="77" y="581" type="curve" smooth="yes"/>
      <point x="65" y="581"/>
      <point x="55" y="571"/>
      <point x="55" y="559" type="curve" smooth="yes"/>
      <point x="55" y="513" type="line" smooth="yes"/>
      <point x="55" y="490"/>
      <point x="60" y="481"/>
      <point x="73" y="468" type="curve" smooth="yes"/>
      <point x="218" y="329" type="line"/>
      <point x="73" y="190" type="line" smooth="yes"/>
      <point x="60" y="177"/>
      <point x="55" y="168"/>
      <point x="55" y="145" type="curve" smooth="yes"/>
      <point x="55" y="99" type="line" smooth="yes"/>
      <point x="55" y="87"/>
      <point x="65" y="77"/>
      <point x="77" y="77" type="curve" smooth="yes"/>
      <point x="78" y="77"/>
      <point x="85" y="77"/>
      <point x="91" y="82" type="curve" smooth="yes"/>
      <point x="288" y="273" type="line" smooth="yes"/>
      <point x="296" y="280"/>
      <point x="302" y="289"/>
      <point x="302" y="301" type="curve" smooth="yes"/>
    </contour>
  </outline>
</glyph>
<glyph name="twoinferior" format="1">
  <advance width="346"/>
  <unicode hex="2082"/>
  <outline>
    <contour>
      <point x="28" y="-148" type="line" smooth="yes"/>
      <point x="28" y="-161"/>
      <point x="37" y="-170"/>
      <point x="50" y="-170" type="curve" smooth="yes"/>
      <point x="294" y="-170" type="line" smooth="yes"/>
      <point x="307" y="-170"/>
      <point x="316" y="-161"/>
      <point x="316" y="-148" type="curve" smooth="yes"/>
      <point x="316" y="-120" type="line" smooth="yes"/>
      <point x="316" y="-107"/>
      <point x="307" y="-98"/>
      <point x="294" y="-98" type="curve" smooth="yes"/>
      <point x="162" y="-98" type="line"/>
      <point x="263" y="-32"/>
      <point x="301" y="7"/>
      <point x="301" y="73" type="curve" smooth="yes"/>
      <point x="301" y="135"/>
      <point x="249" y="185"/>
      <point x="173" y="185" type="curve" smooth="yes"/>
      <point x="90" y="185"/>
      <point x="48" y="126"/>
      <point x="43" y="83" type="curve" smooth="yes"/>
      <point x="42" y="71"/>
      <point x="49" y="64"/>
      <point x="61" y="64" type="curve" smooth="yes"/>
      <point x="95" y="64" type="line" smooth="yes"/>
      <point x="105" y="64"/>
      <point x="111" y="67"/>
      <point x="119" y="82" type="curve" smooth="yes"/>
      <point x="125" y="93"/>
      <point x="138" y="113"/>
      <point x="173" y="113" type="curve" name="hr01" smooth="yes"/>
      <point x="212" y="113"/>
      <point x="225" y="94"/>
      <point x="225" y="73" type="curve" smooth="yes"/>
      <point x="225" y="23"/>
      <point x="178" y="-8"/>
      <point x="50" y="-90" type="curve" smooth="yes"/>
      <point x="30" y="-103"/>
      <point x="28" y="-114"/>
      <point x="28" y="-124" type="curve" smooth="yes"/>
    </contour>
  </outline>
</glyph>
<glyph name="fourinferior" format="1">
  <advance width="349"/>
  <unicode hex="2084"/>
  <outline>
    <contour>
      <point x="168" y="162" type="curve" name="hr00"/>
      <point x="34" y="-23" type="line" smooth="yes"/>
      <point x="22" y="-39"/>
      <point x="22" y="-50"/>
      <point x="22" y="-53" type="curve" smooth="yes"/>
      <point x="22" y="-78" type="line" smooth="yes"/>
      <point x="22" y="-91"/>
      <point x="31" y="-100"/>
      <point x="44" y="-100" type="curve" smooth="yes"/>
      <point x="191" y="-100" type="line"/>
      <point x="191" y="-148" type="line" smooth="yes"/>
      <point x="191" y="-161"/>
      <point x="200" y="-170"/>
      <point x="213" y="-170" type="curve" smooth="yes"/>
      <point x="246" y="-170" type="line" smooth="yes"/>
      <point x="259" y="-170"/>
      <point x="268" y="-161"/>
      <point x="268" y="-148" type="curve" smooth="yes"/>
      <point x="268" y="-100" type="line"/>
      <point x="303" y="-100" type="line" smooth="yes"/>
      <point x="316" y="-100"/>
      <point x="325" y="-91"/>
      <point x="325" y="-78" type="curve" smooth="yes"/>
      <point x="325" y="-50" type="line" smooth="yes"/>
      <point x="325" y="-37"/>
      <point x="316" y="-28"/>
      <point x="303" y="-28" type="curve" smooth="yes"/>
      <point x="268" y="-28" type="line"/>
      <point x="268" y="158" type="line" smooth="yes"/>
      <point x="268" y="171"/>
      <point x="259" y="180"/>
      <point x="246" y="180" type="curve" smooth="yes"/>
      <point x="198" y="180" type="line" smooth="yes"/>
      <point x="189" y="180"/>
      <point x="178" y="176"/>
    </contour>
    <contour>
      <point x="191" y="79" type="line"/>
      <point x="191" y="-28" type="line"/>
      <point x="115" y="-28" type="line"/>
    </contour>
  </outline>
</glyph>
<glyph name="sheqel" format="1">
  <advance width="826"/>
  <unicode hex="20AA"/>
  <outline>
    <contour>
      <point x="505" y="0" type="line"/>
      <point x="679" y="0"/>
      <point x="760" y="84"/>
      <point x="760" y="246" type="curve" smooth="yes"/>
      <point x="760" y="548" type="line" smooth="yes"/>
      <point x="760" y="562"/>
      <point x="751" y="571"/>
      <point x="737" y="571" type="curve" smooth="yes"/>
      <point x="695" y="571" type="line" smooth="yes"/>
      <point x="682" y="571"/>
      <point x="672" y="562"/>
      <point x="672" y="548" type="curve" smooth="yes"/>
      <point x="672" y="249" type="line" smooth="yes"/>
      <point x="672" y="141"/>
      <point x="621" y="78"/>
      <point x="501" y="78" type="curve" smooth="yes"/>
      <point x="353" y="78" type="line"/>
      <point x="353" y="381" type="line" smooth="yes"/>
      <point x="353" y="394"/>
      <point x="344" y="404"/>
      <point x="330" y="404" type="curve" smooth="yes"/>
      <point x="288" y="404" type="line" smooth="yes"/>
      <point x="275" y="404"/>
      <point x="265" y="394"/>
      <point x="265" y="381" type="curve" smooth="yes"/>
      <point x="265" y="23" type="line" smooth="yes"/>
      <point x="265" y="10"/>
      <point x="275" y="0"/>
      <point x="288" y="0" type="curve"/>
    </contour>
    <contour>
      <point x="137" y="0" type="line" smooth="yes"/>
      <point x="151" y="0"/>
      <point x="160" y="10"/>
      <point x="160" y="23" type="curve" smooth="yes"/>
      <point x="160" y="494" type="line"/>
      <point x="308" y="494" type="line" smooth="yes"/>
      <point x="428" y="494"/>
      <point x="479" y="430"/>
      <point x="479" y="322" type="curve" smooth="yes"/>
      <point x="479" y="191" type="line" smooth="yes"/>
      <point x="479" y="178"/>
      <point x="489" y="168"/>
      <point x="502" y="168" type="curve" smooth="yes"/>
      <point x="544" y="168" type="line" smooth="yes"/>
      <point x="558" y="168"/>
      <point x="567" y="178"/>
      <point x="567" y="191" type="curve" smooth="yes"/>
      <point x="567" y="325" type="line" smooth="yes"/>
      <point x="567" y="487"/>
      <point x="486" y="571"/>
      <point x="313" y="571" type="curve" smooth="yes"/>
      <point x="95" y="571" type="line" smooth="yes"/>
      <point x="82" y="571"/>
      <point x="72" y="562"/>
      <point x="72" y="548" type="curve" smooth="yes"/>
      <point x="72" y="23" type="line" smooth="yes"/>
      <point x="72" y="10"/>
      <point x="82" y="0"/>
      <point x="95" y="0" type="curve" smooth="yes"/>
    </contour>
  </outline>
</glyph>
<glyph name="minus" format="1">
  <advance width="650"/>
  <unicode hex="2212"/>
  <outline>
    <contour>
      <point x="552" y="257" type="line" name="hr00" smooth="yes"/>
      <point x="567" y="257"/>
      <point x="579" y="269"/>
      <point x="579" y="284" type="curve" smooth="yes"/>
      <point x="579" y="316" type="line" smooth="yes"/>
      <point x="579" y="331"/>
      <point x="567" y="343"/>
      <point x="552" y="343" type="curve" smooth="yes"/>
      <point x="98" y="343" type="line" smooth="yes"/>
      <point x="83" y="343"/>
      <point x="71" y="331"/>
      <point x="71" y="316" type="curve" smooth="yes"/>
      <point x="71" y="284" type="line" smooth="yes"/>
      <point x="71" y="269"/>
      <point x="83" y="257"/>
      <point x="98" y="257" type="curve" smooth="yes"/>
    </contour>
  </outline>
</glyph>
<glyph name="infinity" format="1">
  <advance width="861"/>
  <unicode hex="221E"/>
  <outline>
    <contour>
      <point x="431" y="373" type="curve" name="hr00"/>
      <point x="394" y="444"/>
      <point x="345" y="493"/>
      <point x="249" y="493" type="curve" smooth="yes"/>
      <point x="105" y="493"/>
      <point x="57" y="386"/>
      <point x="57" y="271" type="curve" smooth="yes"/>
      <point x="57" y="156"/>
      <point x="105" y="49"/>
      <point x="249" y="49" type="curve" smooth="yes"/>
      <point x="345" y="49"/>
      <point x="394" y="98"/>
      <point x="431" y="169" type="curve"/>
      <point x="468" y="98"/>
      <point x="517" y="49"/>
      <point x="613" y="49" type="curve" smooth="yes"/>
      <point x="757" y="49"/>
      <point x="805" y="156"/>
      <point x="805" y="271" type="curve" smooth="yes"/>
      <point x="805" y="386"/>
      <point x="757" y="493"/>
      <point x="613" y="493" type="curve" smooth="yes"/>
      <point x="517" y="493"/>
      <point x="468" y="444"/>
    </contour>
    <contour>
      <point x="613" y="135" type="curve" smooth="yes"/>
      <point x="545" y="135"/>
      <point x="521" y="194"/>
      <point x="480" y="271" type="curve"/>
      <point x="521" y="348"/>
      <point x="545" y="407"/>
      <point x="613" y="407" type="curve" smooth="yes"/>
      <point x="655" y="407"/>
      <point x="714" y="381"/>
      <point x="714" y="271" type="curve" smooth="yes"/>
      <point x="714" y="161"/>
      <point x="655" y="135"/>
    </contour>
    <contour>
      <point x="249" y="135" type="curve" smooth="yes"/>
      <point x="207" y="135"/>
      <point x="148" y="161"/>
      <point x="148" y="271" type="curve" smooth="yes"/>
      <point x="148" y="381"/>
      <point x="207" y="407"/>
      <point x="249" y="407" type="curve" smooth="yes"/>
      <point x="317" y="407"/>
      <point x="341" y="348"/>
      <point x="382" y="271" type="curve"/>
      <point x="341" y="194"/>
      <point x="317" y="135"/>
    </contour>
  </outline>
</glyph>
<glyph name="integral" format="1">
  <advance width="451"/>
  <unicode hex="222B"/>
  <outline>
    <contour>
      <point x="180" y="-50" type="line" name="hr00" smooth="yes"/>
      <point x="180" y="-101"/>
      <point x="166" y="-139"/>
      <point x="96" y="-139" type="curve" smooth="yes"/>
      <point x="43" y="-139" type="line" smooth="yes"/>
      <point x="28" y="-139"/>
      <point x="16" y="-151"/>
      <point x="16" y="-166" type="curve" smooth="yes"/>
      <point x="16" y="-198" type="line" smooth="yes"/>
      <point x="16" y="-213"/>
      <point x="28" y="-225"/>
      <point x="43" y="-225" type="curve" smooth="yes"/>
      <point x="106" y="-225" type="line" smooth="yes"/>
      <point x="221" y="-225"/>
      <point x="271" y="-168"/>
      <point x="271" y="-55" type="curve" smooth="yes"/>
      <point x="271" y="565" type="line" smooth="yes"/>
      <point x="271" y="616"/>
      <point x="285" y="654"/>
      <point x="355" y="654" type="curve" smooth="yes"/>
      <point x="408" y="654" type="line" smooth="yes"/>
      <point x="423" y="654"/>
      <point x="435" y="666"/>
      <point x="435" y="681" type="curve" smooth="yes"/>
      <point x="435" y="713" type="line" smooth="yes"/>
      <point x="435" y="728"/>
      <point x="423" y="740"/>
      <point x="408" y="740" type="curve" smooth="yes"/>
      <point x="345" y="740" type="line" smooth="yes"/>
      <point x="230" y="740"/>
      <point x="180" y="683"/>
      <point x="180" y="570" type="curve" smooth="yes"/>
    </contour>
  </outline>
</glyph>
<glyph name="approxequal" format="1">
  <advance width="561"/>
  <unicode hex="2248"/>
  <outline>
    <contour>
      <point x="176" y="486" type="curve" smooth="yes"/>
      <point x="108" y="486"/>
      <point x="71" y="453"/>
      <point x="71" y="419" type="curve" smooth="yes"/>
      <point x="71" y="395" type="line" smooth="yes"/>
      <point x="71" y="380"/>
      <point x="74" y="368"/>
      <point x="93" y="368" type="curve"/>
      <point x="102" y="369"/>
      <point x="108" y="373"/>
      <point x="113" y="377" type="curve" smooth="yes"/>
      <point x="123" y="386"/>
      <point x="144" y="400"/>
      <point x="175" y="400" type="curve" smooth="yes"/>
      <point x="268" y="400"/>
      <point x="282" y="364"/>
      <point x="381" y="364" type="curve" name="hr01" smooth="yes"/>
      <point x="449" y="364"/>
      <point x="491" y="397"/>
      <point x="491" y="431" type="curve" smooth="yes"/>
      <point x="491" y="455" type="line" smooth="yes"/>
      <point x="491" y="470"/>
      <point x="488" y="482"/>
      <point x="469" y="482" type="curve"/>
      <point x="460" y="481"/>
      <point x="454" y="477"/>
      <point x="449" y="473" type="curve" smooth="yes"/>
      <point x="439" y="464"/>
      <point x="413" y="450"/>
      <point x="382" y="450" type="curve" smooth="yes"/>
      <point x="289" y="450"/>
      <point x="275" y="486"/>
    </contour>
    <contour>
      <point x="176" y="235" type="curve" smooth="yes"/>
      <point x="108" y="235"/>
      <point x="71" y="202"/>
      <point x="71" y="168" type="curve" smooth="yes"/>
      <point x="71" y="144" type="line" smooth="yes"/>
      <point x="71" y="129"/>
      <point x="74" y="117"/>
      <point x="93" y="117" type="curve"/>
      <point x="102" y="118"/>
      <point x="108" y="122"/>
      <point x="113" y="126" type="curve" smooth="yes"/>
      <point x="123" y="135"/>
      <point x="144" y="149"/>
      <point x="175" y="149" type="curve" smooth="yes"/>
      <point x="268" y="149"/>
      <point x="282" y="113"/>
      <point x="381" y="113" type="curve" name="hr03" smooth="yes"/>
      <point x="449" y="113"/>
      <point x="491" y="146"/>
      <point x="491" y="180" type="curve" smooth="yes"/>
      <point x="491" y="204" type="line" smooth="yes"/>
      <point x="491" y="219"/>
      <point x="488" y="231"/>
      <point x="469" y="231" type="curve"/>
      <point x="460" y="230"/>
      <point x="454" y="226"/>
      <point x="449" y="222" type="curve" smooth="yes"/>
      <point x="439" y="213"/>
      <point x="413" y="199"/>
      <point x="382" y="199" type="curve" smooth="yes"/>
      <point x="289" y="199"/>
      <point x="275" y="235"/>
    </contour>
  </outline>
</glyph>
<glyph name="lozenge" format="1">
  <advance width="544"/>
  <unicode hex="25CA"/>
  <outline>
    <contour>
      <point x="42" y="355" type="curve" name="hr00" smooth="yes"/>
      <point x="42" y="344"/>
      <point x="46" y="335"/>
      <point x="50" y="327" type="curve" smooth="yes"/>
      <point x="206" y="33" type="line" smooth="yes"/>
      <point x="213" y="19"/>
      <point x="229" y="0"/>
      <point x="256" y="0" type="curve" smooth="yes"/>
      <point x="288" y="0" type="line" smooth="yes"/>
      <point x="315" y="0"/>
      <point x="331" y="19"/>
      <point x="338" y="33" type="curve" smooth="yes"/>
      <point x="494" y="327" type="line" smooth="yes"/>
      <point x="498" y="335"/>
      <point x="502" y="344"/>
      <point x="502" y="355" type="curve" smooth="yes"/>
      <point x="502" y="366"/>
      <point x="498" y="375"/>
      <point x="494" y="383" type="curve" smooth="yes"/>
      <point x="338" y="677" type="line" smooth="yes"/>
      <point x="331" y="691"/>
      <point x="315" y="710"/>
      <point x="288" y="710" type="curve" smooth="yes"/>
      <point x="256" y="710" type="line" smooth="yes"/>
      <point x="229" y="710"/>
      <point x="213" y="691"/>
      <point x="206" y="677" type="curve" smooth="yes"/>
      <point x="50" y="383" type="line" smooth="yes"/>
      <point x="46" y="375"/>
      <point x="42" y="366"/>
    </contour>
    <contour>
      <point x="407" y="355" type="line"/>
      <point x="272" y="97" type="line"/>
      <point x="137" y="355" type="line"/>
      <point x="272" y="613" type="line"/>
    </contour>
  </outline>
</glyph>
<glyph name="Caron" format="1">
  <advance width="428"/>
  <unicode hex="F6CA"/>
  <outline>
    <contour>
      <point x="229" y="750" type="line" name="hr00" smooth="yes"/>
      <point x="244" y="750"/>
      <point x="253" y="755"/>
      <point x="266" y="769" type="curve" smooth="yes"/>
      <point x="358" y="861" type="line" smooth="yes"/>
      <point x="361" y="864"/>
      <point x="363" y="869"/>
      <point x="363" y="874" type="curve" smooth="yes"/>
      <point x="363" y="884"/>
      <point x="357" y="890"/>
      <point x="347" y="890" type="curve" smooth="yes"/>
      <point x="321" y="890" type="line" smooth="yes"/>
      <point x="308" y="890"/>
      <point x="302" y="887"/>
      <point x="290" y="879" type="curve" smooth="yes"/>
      <point x="214" y="828" type="line"/>
      <point x="138" y="879" type="line" smooth="yes"/>
      <point x="126" y="887"/>
      <point x="120" y="890"/>
      <point x="107" y="890" type="curve" smooth="yes"/>
      <point x="81" y="890" type="line" smooth="yes"/>
      <point x="71" y="890"/>
      <point x="65" y="884"/>
      <point x="65" y="874" type="curve" smooth="yes"/>
      <point x="65" y="869"/>
      <point x="67" y="864"/>
      <point x="70" y="861" type="curve" smooth="yes"/>
      <point x="162" y="769" type="line" smooth="yes"/>
      <point x="175" y="755"/>
      <point x="184" y="750"/>
      <point x="199" y="750" type="curve" smooth="yes"/>
    </contour>
  </outline>
</glyph>
<glyph name="Macron" format="1">
  <advance width="413"/>
  <unicode hex="F6D0"/>
  <outline>
    <contour>
      <point x="321" y="750" type="line" name="hr00" smooth="yes"/>
      <point x="336" y="750"/>
      <point x="348" y="762"/>
      <point x="348" y="777" type="curve" smooth="yes"/>
      <point x="348" y="813" type="line" smooth="yes"/>
      <point x="348" y="828"/>
      <point x="336" y="840"/>
      <point x="321" y="840" type="curve" smooth="yes"/>
      <point x="92" y="840" type="line" smooth="yes"/>
      <point x="77" y="840"/>
      <point x="65" y="828"/>
      <point x="65" y="813" type="curve" smooth="yes"/>
      <point x="65" y="777" type="line" smooth="yes"/>
      <point x="65" y="762"/>
      <point x="77" y="750"/>
      <point x="92" y="750" type="curve" smooth="yes"/>
    </contour>
  </outline>
</glyph>
<glyph name="Cedilla" format="1">
  <advance width="311"/>
  <outline>
    <contour>
      <point x="114" y="27" type="line"/>
      <point x="79" y="-53" type="line" smooth="yes"/>
      <point x="75" y="-63"/>
      <point x="70" y="-75"/>
      <point x="77" y="-83" type="curve" smooth="yes"/>
      <point x="94" y="-101" type="line" smooth="yes"/>
      <point x="109" y="-117"/>
      <point x="116" y="-99"/>
      <point x="148" y="-99" type="curve" smooth="yes"/>
      <point x="177" y="-99"/>
      <point x="191" y="-110"/>
      <point x="191" y="-134" type="curve" smooth="yes"/>
      <point x="191" y="-159"/>
      <point x="176" y="-169"/>
      <point x="148" y="-169" type="curve" smooth="yes"/>
      <point x="112" y="-169"/>
      <point x="106" y="-137"/>
      <point x="85" y="-156" type="curve" smooth="yes"/>
      <point x="71" y="-169" type="line" smooth="yes"/>
      <point x="52" y="-187"/>
      <point x="101" y="-220"/>
      <point x="148" y="-220" type="curve" smooth="yes"/>
      <point x="218" y="-220"/>
      <point x="247" y="-180"/>
      <point x="247" y="-132" type="curve" smooth="yes"/>
      <point x="247" y="-84"/>
      <point x="215" y="-48"/>
      <point x="171" y="-48" type="curve" smooth="yes"/>
      <point x="156" y="-48"/>
      <point x="144" y="-51"/>
      <point x="136" y="-56" type="curve"/>
      <point x="175" y="27" type="line" name="hr01"/>
    </contour>
  </outline>
</glyph>
<glyph name="Tilde" format="1">
  <advance width="429"/>
  <outline>
    <contour>
      <point x="278" y="745" type="curve" smooth="yes"/>
      <point x="340" y="745"/>
      <point x="364" y="811"/>
      <point x="364" y="841" type="curve" smooth="yes"/>
      <point x="364" y="851"/>
      <point x="357" y="860"/>
      <point x="345" y="860" type="curve" smooth="yes"/>
      <point x="308" y="860" type="line" smooth="yes"/>
      <point x="287" y="860"/>
      <point x="296" y="833"/>
      <point x="265" y="833" type="curve" smooth="yes"/>
      <point x="227" y="833"/>
      <point x="213" y="865"/>
      <point x="151" y="865" type="curve" name="hr01" smooth="yes"/>
      <point x="89" y="865"/>
      <point x="65" y="799"/>
      <point x="65" y="769" type="curve" smooth="yes"/>
      <point x="65" y="759"/>
      <point x="72" y="750"/>
      <point x="84" y="750" type="curve" smooth="yes"/>
      <point x="121" y="750" type="line" smooth="yes"/>
      <point x="142" y="750"/>
      <point x="133" y="777"/>
      <point x="164" y="777" type="curve" smooth="yes"/>
      <point x="199" y="777"/>
      <point x="217" y="745"/>
    </contour>
  </outline>
</glyph>
<glyph name="approxequal.cap" format="1">
  <advance width="563"/>
  <outline>
    <contour>
      <point x="177" y="537" type="curve" smooth="yes"/>
      <point x="109" y="537"/>
      <point x="72" y="504"/>
      <point x="72" y="470" type="curve" smooth="yes"/>
      <point x="72" y="446" type="line" smooth="yes"/>
      <point x="72" y="431"/>
      <point x="75" y="419"/>
      <point x="94" y="419" type="curve"/>
      <point x="103" y="420"/>
      <point x="109" y="424"/>
      <point x="114" y="428" type="curve" smooth="yes"/>
      <point x="124" y="437"/>
      <point x="145" y="451"/>
      <point x="176" y="451" type="curve" smooth="yes"/>
      <point x="269" y="451"/>
      <point x="283" y="415"/>
      <point x="382" y="415" type="curve" name="hr01" smooth="yes"/>
      <point x="450" y="415"/>
      <point x="492" y="448"/>
      <point x="492" y="482" type="curve" smooth="yes"/>
      <point x="492" y="506" type="line" smooth="yes"/>
      <point x="492" y="521"/>
      <point x="489" y="533"/>
      <point x="470" y="533" type="curve"/>
      <point x="461" y="532"/>
      <point x="455" y="528"/>
      <point x="450" y="524" type="curve" smooth="yes"/>
      <point x="440" y="515"/>
      <point x="414" y="501"/>
      <point x="383" y="501" type="curve" smooth="yes"/>
      <point x="290" y="501"/>
      <point x="276" y="537"/>
    </contour>
    <contour>
      <point x="177" y="286" type="curve" smooth="yes"/>
      <point x="109" y="286"/>
      <point x="72" y="253"/>
      <point x="72" y="219" type="curve" smooth="yes"/>
      <point x="72" y="195" type="line" smooth="yes"/>
      <point x="72" y="180"/>
      <point x="75" y="168"/>
      <point x="94" y="168" type="curve"/>
      <point x="103" y="169"/>
      <point x="109" y="173"/>
      <point x="114" y="177" type="curve" smooth="yes"/>
      <point x="124" y="186"/>
      <point x="145" y="200"/>
      <point x="176" y="200" type="curve" smooth="yes"/>
      <point x="269" y="200"/>
      <point x="283" y="164"/>
      <point x="382" y="164" type="curve" name="hr03" smooth="yes"/>
      <point x="450" y="164"/>
      <point x="492" y="197"/>
      <point x="492" y="231" type="curve" smooth="yes"/>
      <point x="492" y="255" type="line" smooth="yes"/>
      <point x="492" y="270"/>
      <point x="489" y="282"/>
      <point x="470" y="282" type="curve"/>
      <point x="461" y="281"/>
      <point x="455" y="277"/>
      <point x="450" y="273" type="curve" smooth="yes"/>
      <point x="440" y="264"/>
      <point x="414" y="250"/>
      <point x="383" y="250" type="curve" smooth="yes"/>
      <point x="290" y="250"/>
      <point x="276" y="286"/>
    </contour>
  </outline>
</glyph>
<glyph name="braceleft.cap" format="1">
  <advance width="397"/>
  <outline>
    <contour>
      <point x="203" y="193" type="curve" smooth="yes"/>
      <point x="203" y="266"/>
      <point x="180" y="327"/>
      <point x="132" y="351" type="curve"/>
      <point x="180" y="375"/>
      <point x="203" y="434"/>
      <point x="203" y="507" type="curve" smooth="yes"/>
      <point x="203" y="673"/>
      <point x="248" y="732"/>
      <point x="332" y="732" type="curve" smooth="yes"/>
      <point x="347" y="732"/>
      <point x="359" y="744"/>
      <point x="359" y="759" type="curve" name="hr01" smooth="yes"/>
      <point x="359" y="791" type="line" smooth="yes"/>
      <point x="359" y="806"/>
      <point x="347" y="818"/>
      <point x="332" y="818" type="curve" smooth="yes"/>
      <point x="193" y="818"/>
      <point x="112" y="707"/>
      <point x="112" y="533" type="curve" smooth="yes"/>
      <point x="112" y="465"/>
      <point x="104" y="423"/>
      <point x="59" y="402" type="curve" smooth="yes"/>
      <point x="39" y="393"/>
      <point x="27" y="378"/>
      <point x="27" y="362" type="curve" smooth="yes"/>
      <point x="27" y="339" type="line" smooth="yes"/>
      <point x="27" y="323"/>
      <point x="39" y="308"/>
      <point x="59" y="299" type="curve" smooth="yes"/>
      <point x="104" y="278"/>
      <point x="112" y="235"/>
      <point x="112" y="167" type="curve" smooth="yes"/>
      <point x="112" y="-7"/>
      <point x="193" y="-118"/>
      <point x="332" y="-118" type="curve" smooth="yes"/>
      <point x="347" y="-118"/>
      <point x="359" y="-106"/>
      <point x="359" y="-91" type="curve" smooth="yes"/>
      <point x="359" y="-59" type="line" smooth="yes"/>
      <point x="359" y="-44"/>
      <point x="347" y="-32"/>
      <point x="332" y="-32" type="curve" smooth="yes"/>
      <point x="248" y="-32"/>
      <point x="203" y="27"/>
    </contour>
  </outline>
</glyph>
<glyph name="braceright.cap" format="1">
  <advance width="397"/>
  <outline>
    <contour>
      <point x="194" y="193" type="curve" smooth="yes"/>
      <point x="194" y="27"/>
      <point x="149" y="-32"/>
      <point x="65" y="-32" type="curve" smooth="yes"/>
      <point x="50" y="-32"/>
      <point x="38" y="-44"/>
      <point x="38" y="-59" type="curve" name="hr01" smooth="yes"/>
      <point x="38" y="-91" type="line" smooth="yes"/>
      <point x="38" y="-106"/>
      <point x="50" y="-118"/>
      <point x="65" y="-118" type="curve" smooth="yes"/>
      <point x="204" y="-118"/>
      <point x="285" y="-7"/>
      <point x="285" y="167" type="curve" smooth="yes"/>
      <point x="285" y="235"/>
      <point x="293" y="278"/>
      <point x="338" y="299" type="curve" smooth="yes"/>
      <point x="358" y="308"/>
      <point x="370" y="323"/>
      <point x="370" y="339" type="curve" smooth="yes"/>
      <point x="370" y="362" type="line" smooth="yes"/>
      <point x="370" y="378"/>
      <point x="358" y="393"/>
      <point x="338" y="402" type="curve" smooth="yes"/>
      <point x="293" y="423"/>
      <point x="285" y="465"/>
      <point x="285" y="533" type="curve" smooth="yes"/>
      <point x="285" y="707"/>
      <point x="204" y="818"/>
      <point x="65" y="818" type="curve" smooth="yes"/>
      <point x="50" y="818"/>
      <point x="38" y="806"/>
      <point x="38" y="791" type="curve" smooth="yes"/>
      <point x="38" y="759" type="line" smooth="yes"/>
      <point x="38" y="744"/>
      <point x="50" y="732"/>
      <point x="65" y="732" type="curve" smooth="yes"/>
      <point x="149" y="732"/>
      <point x="194" y="673"/>
      <point x="194" y="507" type="curve" name="hr02" smooth="yes"/>
      <point x="194" y="434"/>
      <point x="217" y="375"/>
      <point x="265" y="351" type="curve"/>
      <point x="217" y="327"/>
      <point x="194" y="266"/>
    </contour>
  </outline>
</glyph>
<glyph name="f_f" format="1">
  <advance width="692"/>
  <outline>
    <contour>
      <point x="221" y="434" type="line"/>
      <point x="432" y="434" type="line"/>
      <point x="432" y="27" type="line" smooth="yes"/>
      <point x="432" y="12"/>
      <point x="444" y="0"/>
      <point x="459" y="0" type="curve" smooth="yes"/>
      <point x="496" y="0" type="line" smooth="yes"/>
      <point x="511" y="0"/>
      <point x="523" y="12"/>
      <point x="523" y="27" type="curve" smooth="yes"/>
      <point x="523" y="434" type="line"/>
      <point x="650" y="434" type="line" smooth="yes"/>
      <point x="665" y="434"/>
      <point x="677" y="446"/>
      <point x="677" y="461" type="curve" name="hr01" smooth="yes"/>
      <point x="677" y="493" type="line" smooth="yes"/>
      <point x="677" y="508"/>
      <point x="665" y="520"/>
      <point x="650" y="520" type="curve" smooth="yes"/>
      <point x="523" y="520" type="line" name="hr02"/>
      <point x="523" y="565" type="line" smooth="yes"/>
      <point x="523" y="616"/>
      <point x="537" y="654"/>
      <point x="607" y="654" type="curve" smooth="yes"/>
      <point x="660" y="654" type="line" smooth="yes"/>
      <point x="675" y="654"/>
      <point x="687" y="666"/>
      <point x="687" y="681" type="curve" smooth="yes"/>
      <point x="687" y="713" type="line" smooth="yes"/>
      <point x="687" y="728"/>
      <point x="675" y="740"/>
      <point x="660" y="740" type="curve" smooth="yes"/>
      <point x="597" y="740" type="line" smooth="yes"/>
      <point x="482" y="740"/>
      <point x="432" y="683"/>
      <point x="432" y="570" type="curve" smooth="yes"/>
      <point x="432" y="520" type="line"/>
      <point x="221" y="520" type="line"/>
      <point x="221" y="565" type="line" smooth="yes"/>
      <point x="221" y="616"/>
      <point x="235" y="654"/>
      <point x="305" y="654" type="curve" smooth="yes"/>
      <point x="358" y="654" type="line" smooth="yes"/>
      <point x="373" y="654"/>
      <point x="385" y="666"/>
      <point x="385" y="681" type="curve" smooth="yes"/>
      <point x="385" y="713" type="line" smooth="yes"/>
      <point x="385" y="728"/>
      <point x="373" y="740"/>
      <point x="358" y="740" type="curve" smooth="yes"/>
      <point x="295" y="740" type="line" smooth="yes"/>
      <point x="180" y="740"/>
      <point x="130" y="683"/>
      <point x="130" y="570" type="curve" smooth="yes"/>
      <point x="130" y="520" type="line"/>
      <point x="46" y="520" type="line" smooth="yes"/>
      <point x="31" y="520"/>
      <point x="19" y="508"/>
      <point x="19" y="493" type="curve" smooth="yes"/>
      <point x="19" y="461" type="line" smooth="yes"/>
      <point x="19" y="446"/>
      <point x="31" y="434"/>
      <point x="46" y="434" type="curve" smooth="yes"/>
      <point x="130" y="434" type="line"/>
      <point x="130" y="27" type="line" smooth="yes"/>
      <point x="130" y="12"/>
      <point x="142" y="0"/>
      <point x="157" y="0" type="curve" smooth="yes"/>
      <point x="194" y="0" type="line" smooth="yes"/>
      <point x="209" y="0"/>
      <point x="221" y="12"/>
      <point x="221" y="27" type="curve" smooth="yes"/>
    </contour>
  </outline>
</glyph>
<glyph name="parenleft.cap" format="1">
  <advance width="358"/>
  <outline>
    <contour>
      <point x="293" y="-117" type="curve" name="hr00" smooth="yes"/>
      <point x="308" y="-117"/>
      <point x="320" y="-105"/>
      <point x="320" y="-90" type="curve" smooth="yes"/>
      <point x="320" y="-58" type="line" smooth="yes"/>
      <point x="320" y="-43"/>
      <point x="308" y="-31"/>
      <point x="293" y="-31" type="curve" smooth="yes"/>
      <point x="166" y="-31"/>
      <point x="151" y="100"/>
      <point x="151" y="351" type="curve" smooth="yes"/>
      <point x="151" y="602"/>
      <point x="166" y="732"/>
      <point x="293" y="732" type="curve" smooth="yes"/>
      <point x="308" y="732"/>
      <point x="320" y="744"/>
      <point x="320" y="759" type="curve" smooth="yes"/>
      <point x="320" y="791" type="line" smooth="yes"/>
      <point x="320" y="806"/>
      <point x="308" y="818"/>
      <point x="293" y="818" type="curve" smooth="yes"/>
      <point x="101" y="818"/>
      <point x="60" y="669"/>
      <point x="60" y="351" type="curve" smooth="yes"/>
      <point x="60" y="33"/>
      <point x="101" y="-117"/>
    </contour>
  </outline>
</glyph>
<glyph name="six.otlf" format="1">
  <advance width="620"/>
  <outline>
    <contour>
      <point x="414" y="665" type="line" name="hr00" smooth="yes"/>
      <point x="416" y="668"/>
      <point x="419" y="672"/>
      <point x="419" y="678" type="curve" smooth="yes"/>
      <point x="419" y="690"/>
      <point x="411" y="700"/>
      <point x="399" y="700" type="curve" smooth="yes"/>
      <point x="342" y="700" type="line" smooth="yes"/>
      <point x="324" y="700"/>
      <point x="317" y="687"/>
      <point x="311" y="680" type="curve"/>
      <point x="129" y="412" type="line" smooth="yes"/>
      <point x="95" y="363"/>
      <point x="56" y="309"/>
      <point x="56" y="231" type="curve" smooth="yes"/>
      <point x="56" y="95"/>
      <point x="165" y="-10"/>
      <point x="315" y="-10" type="curve" smooth="yes"/>
      <point x="465" y="-10"/>
      <point x="574" y="95"/>
      <point x="574" y="231" type="curve" smooth="yes"/>
      <point x="574" y="367"/>
      <point x="465" y="472"/>
      <point x="315" y="472" type="curve" smooth="yes"/>
      <point x="305" y="472"/>
      <point x="288" y="470"/>
      <point x="279" y="467" type="curve"/>
    </contour>
    <contour>
      <point x="151" y="231" type="curve" smooth="yes"/>
      <point x="151" y="310"/>
      <point x="213" y="382"/>
      <point x="315" y="382" type="curve" smooth="yes"/>
      <point x="417" y="382"/>
      <point x="479" y="310"/>
      <point x="479" y="231" type="curve" smooth="yes"/>
      <point x="479" y="152"/>
      <point x="417" y="80"/>
      <point x="315" y="80" type="curve" smooth="yes"/>
      <point x="213" y="80"/>
      <point x="151" y="152"/>
    </contour>
  </outline>
</glyph>
